<svg width="319" height="204" viewBox="0 0 319 204" fill="none" xmlns="http://www.w3.org/2000/svg">
<rect width="319" height="86" rx="8" fill="#E9F7FF"/>
<path d="M26.2248 39V24.1H35.4248V25.6H27.8248V30.78H34.8248V32.28H27.8248V39H26.2248ZM37.0205 39V28.28H38.5205V30.04L38.3205 29.78C38.5738 29.2733 38.9538 28.8733 39.4605 28.58C39.9805 28.2867 40.6071 28.14 41.3405 28.14H42.0205V29.64H41.0805C40.3071 29.64 39.6871 29.88 39.2205 30.36C38.7538 30.84 38.5205 31.52 38.5205 32.4V39H37.0205ZM48.6583 39.24C47.6583 39.24 46.7516 39 45.9383 38.52C45.1383 38.0267 44.5049 37.3533 44.0383 36.5C43.5716 35.6467 43.3383 34.68 43.3383 33.6C43.3383 32.52 43.5649 31.5667 44.0183 30.74C44.4716 29.9 45.0849 29.24 45.8583 28.76C46.6449 28.28 47.5249 28.04 48.4983 28.04C49.2716 28.04 49.9583 28.1867 50.5583 28.48C51.1716 28.76 51.6916 29.1467 52.1183 29.64C52.5449 30.12 52.8716 30.6667 53.0983 31.28C53.3249 31.88 53.4383 32.5 53.4383 33.14C53.4383 33.2733 53.4316 33.4267 53.4183 33.6C53.4049 33.76 53.3849 33.9267 53.3583 34.1H44.2983V32.7H52.4983L51.7783 33.3C51.8983 32.5667 51.8116 31.9133 51.5183 31.34C51.2383 30.7533 50.8316 30.2933 50.2983 29.96C49.7649 29.6133 49.1649 29.44 48.4983 29.44C47.8316 29.44 47.2116 29.6133 46.6383 29.96C46.0783 30.3067 45.6383 30.7933 45.3183 31.42C44.9983 32.0333 44.8716 32.7667 44.9383 33.62C44.8716 34.4733 45.0049 35.22 45.3383 35.86C45.6849 36.4867 46.1516 36.9733 46.7383 37.32C47.3383 37.6667 47.9783 37.84 48.6583 37.84C49.4449 37.84 50.1049 37.6533 50.6383 37.28C51.1716 36.9067 51.6049 36.44 51.9383 35.88L53.2183 36.56C53.0049 37.04 52.6783 37.4867 52.2383 37.9C51.7983 38.3 51.2716 38.6267 50.6583 38.88C50.0583 39.12 49.3916 39.24 48.6583 39.24ZM60.963 39.24C59.963 39.24 59.0563 39 58.243 38.52C57.443 38.0267 56.8096 37.3533 56.343 36.5C55.8763 35.6467 55.643 34.68 55.643 33.6C55.643 32.52 55.8696 31.5667 56.323 30.74C56.7763 29.9 57.3896 29.24 58.163 28.76C58.9496 28.28 59.8296 28.04 60.803 28.04C61.5763 28.04 62.263 28.1867 62.863 28.48C63.4763 28.76 63.9963 29.1467 64.423 29.64C64.8496 30.12 65.1763 30.6667 65.403 31.28C65.6296 31.88 65.743 32.5 65.743 33.14C65.743 33.2733 65.7363 33.4267 65.723 33.6C65.7096 33.76 65.6896 33.9267 65.663 34.1H56.603V32.7H64.803L64.083 33.3C64.203 32.5667 64.1163 31.9133 63.823 31.34C63.543 30.7533 63.1363 30.2933 62.603 29.96C62.0696 29.6133 61.4696 29.44 60.803 29.44C60.1363 29.44 59.5163 29.6133 58.943 29.96C58.383 30.3067 57.943 30.7933 57.623 31.42C57.303 32.0333 57.1763 32.7667 57.243 33.62C57.1763 34.4733 57.3096 35.22 57.643 35.86C57.9896 36.4867 58.4563 36.9733 59.043 37.32C59.643 37.6667 60.283 37.84 60.963 37.84C61.7496 37.84 62.4096 37.6533 62.943 37.28C63.4763 36.9067 63.9096 36.44 64.243 35.88L65.523 36.56C65.3096 37.04 64.983 37.4867 64.543 37.9C64.103 38.3 63.5763 38.6267 62.963 38.88C62.363 39.12 61.6963 39.24 60.963 39.24ZM76.6861 39.24C75.6328 39.24 74.7061 38.9933 73.9061 38.5C73.1061 38.0067 72.4794 37.34 72.0261 36.5C71.5728 35.6467 71.3461 34.6867 71.3461 33.62C71.3461 32.5533 71.5728 31.6 72.0261 30.76C72.4794 29.92 73.1061 29.26 73.9061 28.78C74.7061 28.2867 75.6328 28.04 76.6861 28.04C77.3528 28.04 77.9794 28.16 78.5661 28.4C79.1528 28.64 79.6728 28.9667 80.1261 29.38C80.5794 29.78 80.9194 30.2467 81.1461 30.78L79.7861 31.48C79.5194 30.9067 79.1128 30.44 78.5661 30.08C78.0194 29.72 77.3928 29.54 76.6861 29.54C75.9794 29.54 75.3394 29.72 74.7661 30.08C74.2061 30.4267 73.7594 30.9133 73.4261 31.54C73.1061 32.1533 72.9461 32.8533 72.9461 33.64C72.9461 34.4133 73.1061 35.1133 73.4261 35.74C73.7594 36.3533 74.2061 36.84 74.7661 37.2C75.3394 37.56 75.9794 37.74 76.6861 37.74C77.3928 37.74 78.0128 37.56 78.5461 37.2C79.0928 36.84 79.5061 36.36 79.7861 35.76L81.1461 36.5C80.9194 37.02 80.5794 37.4867 80.1261 37.9C79.6728 38.3133 79.1528 38.64 78.5661 38.88C77.9794 39.12 77.3528 39.24 76.6861 39.24ZM86.683 39.24C86.003 39.24 85.3963 39.1133 84.863 38.86C84.3296 38.5933 83.9096 38.2333 83.603 37.78C83.2963 37.3267 83.143 36.8067 83.143 36.22C83.143 35.66 83.263 35.1533 83.503 34.7C83.743 34.2333 84.1163 33.84 84.623 33.52C85.1296 33.2 85.7763 32.9733 86.563 32.84L90.763 32.14V33.5L86.923 34.14C86.1496 34.2733 85.5896 34.52 85.243 34.88C84.9096 35.24 84.743 35.6667 84.743 36.16C84.743 36.64 84.9296 37.0467 85.303 37.38C85.6896 37.7133 86.183 37.88 86.783 37.88C87.5163 37.88 88.1563 37.7267 88.703 37.42C89.2496 37.1 89.6763 36.6733 89.983 36.14C90.2896 35.6067 90.443 35.0133 90.443 34.36V31.64C90.443 31 90.2096 30.48 89.743 30.08C89.2763 29.68 88.6696 29.48 87.923 29.48C87.2696 29.48 86.6963 29.6467 86.203 29.98C85.7096 30.3 85.343 30.72 85.103 31.24L83.743 30.5C83.943 30.0467 84.2563 29.6333 84.683 29.26C85.123 28.8867 85.623 28.5933 86.183 28.38C86.743 28.1533 87.323 28.04 87.923 28.04C88.7096 28.04 89.403 28.1933 90.003 28.5C90.6163 28.8067 91.0896 29.2333 91.423 29.78C91.7696 30.3133 91.943 30.9333 91.943 31.64V39H90.443V36.86L90.663 37.08C90.4763 37.48 90.183 37.8467 89.783 38.18C89.3963 38.5 88.9363 38.76 88.403 38.96C87.883 39.1467 87.3096 39.24 86.683 39.24ZM95.0283 39V28.28H96.5283V30.36L96.1883 30.28C96.4549 29.5867 96.8883 29.04 97.4883 28.64C98.1016 28.24 98.8083 28.04 99.6083 28.04C100.368 28.04 101.048 28.2133 101.648 28.56C102.262 28.9067 102.742 29.3867 103.088 30C103.448 30.6 103.628 31.28 103.628 32.04V39H102.128V32.62C102.128 31.9667 102.008 31.4133 101.768 30.96C101.542 30.5067 101.215 30.16 100.788 29.92C100.375 29.6667 99.8949 29.54 99.3483 29.54C98.8016 29.54 98.3149 29.6667 97.8883 29.92C97.4616 30.16 97.1283 30.5133 96.8883 30.98C96.6483 31.4333 96.5283 31.98 96.5283 32.62V39H95.0283ZM111.393 39.24C110.34 39.24 109.413 38.9933 108.613 38.5C107.813 38.0067 107.186 37.34 106.733 36.5C106.28 35.6467 106.053 34.6867 106.053 33.62C106.053 32.5533 106.28 31.6 106.733 30.76C107.186 29.92 107.813 29.26 108.613 28.78C109.413 28.2867 110.34 28.04 111.393 28.04C112.06 28.04 112.686 28.16 113.273 28.4C113.86 28.64 114.38 28.9667 114.833 29.38C115.286 29.78 115.626 30.2467 115.853 30.78L114.493 31.48C114.226 30.9067 113.82 30.44 113.273 30.08C112.726 29.72 112.1 29.54 111.393 29.54C110.686 29.54 110.046 29.72 109.473 30.08C108.913 30.4267 108.466 30.9133 108.133 31.54C107.813 32.1533 107.653 32.8533 107.653 33.64C107.653 34.4133 107.813 35.1133 108.133 35.74C108.466 36.3533 108.913 36.84 109.473 37.2C110.046 37.56 110.686 37.74 111.393 37.74C112.1 37.74 112.72 37.56 113.253 37.2C113.8 36.84 114.213 36.36 114.493 35.76L115.853 36.5C115.626 37.02 115.286 37.4867 114.833 37.9C114.38 38.3133 113.86 38.64 113.273 38.88C112.686 39.12 112.06 39.24 111.393 39.24ZM123.365 39.24C122.365 39.24 121.459 39 120.645 38.52C119.845 38.0267 119.212 37.3533 118.745 36.5C118.279 35.6467 118.045 34.68 118.045 33.6C118.045 32.52 118.272 31.5667 118.725 30.74C119.179 29.9 119.792 29.24 120.565 28.76C121.352 28.28 122.232 28.04 123.205 28.04C123.979 28.04 124.665 28.1867 125.265 28.48C125.879 28.76 126.399 29.1467 126.825 29.64C127.252 30.12 127.579 30.6667 127.805 31.28C128.032 31.88 128.145 32.5 128.145 33.14C128.145 33.2733 128.139 33.4267 128.125 33.6C128.112 33.76 128.092 33.9267 128.065 34.1H119.005V32.7H127.205L126.485 33.3C126.605 32.5667 126.519 31.9133 126.225 31.34C125.945 30.7533 125.539 30.2933 125.005 29.96C124.472 29.6133 123.872 29.44 123.205 29.44C122.539 29.44 121.919 29.6133 121.345 29.96C120.785 30.3067 120.345 30.7933 120.025 31.42C119.705 32.0333 119.579 32.7667 119.645 33.62C119.579 34.4733 119.712 35.22 120.045 35.86C120.392 36.4867 120.859 36.9733 121.445 37.32C122.045 37.6667 122.685 37.84 123.365 37.84C124.152 37.84 124.812 37.6533 125.345 37.28C125.879 36.9067 126.312 36.44 126.645 35.88L127.925 36.56C127.712 37.04 127.385 37.4867 126.945 37.9C126.505 38.3 125.979 38.6267 125.365 38.88C124.765 39.12 124.099 39.24 123.365 39.24ZM130.79 39V23.86H132.29V39H130.79ZM135.36 39V23.86H136.86V39H135.36ZM143.031 39.24C142.351 39.24 141.744 39.1133 141.211 38.86C140.677 38.5933 140.257 38.2333 139.951 37.78C139.644 37.3267 139.491 36.8067 139.491 36.22C139.491 35.66 139.611 35.1533 139.851 34.7C140.091 34.2333 140.464 33.84 140.971 33.52C141.477 33.2 142.124 32.9733 142.911 32.84L147.111 32.14V33.5L143.271 34.14C142.497 34.2733 141.937 34.52 141.591 34.88C141.257 35.24 141.091 35.6667 141.091 36.16C141.091 36.64 141.277 37.0467 141.651 37.38C142.037 37.7133 142.531 37.88 143.131 37.88C143.864 37.88 144.504 37.7267 145.051 37.42C145.597 37.1 146.024 36.6733 146.331 36.14C146.637 35.6067 146.791 35.0133 146.791 34.36V31.64C146.791 31 146.557 30.48 146.091 30.08C145.624 29.68 145.017 29.48 144.271 29.48C143.617 29.48 143.044 29.6467 142.551 29.98C142.057 30.3 141.691 30.72 141.451 31.24L140.091 30.5C140.291 30.0467 140.604 29.6333 141.031 29.26C141.471 28.8867 141.971 28.5933 142.531 28.38C143.091 28.1533 143.671 28.04 144.271 28.04C145.057 28.04 145.751 28.1933 146.351 28.5C146.964 28.8067 147.437 29.2333 147.771 29.78C148.117 30.3133 148.291 30.9333 148.291 31.64V39H146.791V36.86L147.011 37.08C146.824 37.48 146.531 37.8467 146.131 38.18C145.744 38.5 145.284 38.76 144.751 38.96C144.231 39.1467 143.657 39.24 143.031 39.24ZM155.281 39.12C154.321 39.12 153.581 38.84 153.061 38.28C152.541 37.72 152.281 36.92 152.281 35.88V29.78H150.301V28.28H150.801C151.254 28.28 151.614 28.1333 151.881 27.84C152.147 27.5333 152.281 27.1533 152.281 26.7V25.8H153.781V28.28H156.141V29.78H153.781V35.88C153.781 36.24 153.834 36.56 153.941 36.84C154.047 37.1067 154.227 37.32 154.481 37.48C154.747 37.64 155.101 37.72 155.541 37.72C155.647 37.72 155.774 37.7133 155.921 37.7C156.067 37.6867 156.194 37.6733 156.301 37.66V39C156.141 39.04 155.961 39.0667 155.761 39.08C155.561 39.1067 155.401 39.12 155.281 39.12ZM158.935 39V28.28H160.435V39H158.935ZM158.935 26.3V24.1H160.435V26.3H158.935ZM168.525 39.24C167.512 39.24 166.592 39 165.765 38.52C164.938 38.0267 164.278 37.36 163.785 36.52C163.305 35.6667 163.065 34.7 163.065 33.62C163.065 32.5533 163.305 31.6 163.785 30.76C164.265 29.92 164.912 29.26 165.725 28.78C166.552 28.2867 167.485 28.04 168.525 28.04C169.565 28.04 170.492 28.28 171.305 28.76C172.132 29.24 172.778 29.9 173.245 30.74C173.725 31.58 173.965 32.54 173.965 33.62C173.965 34.7133 173.718 35.6867 173.225 36.54C172.732 37.38 172.072 38.04 171.245 38.52C170.432 39 169.525 39.24 168.525 39.24ZM168.525 37.74C169.245 37.74 169.892 37.56 170.465 37.2C171.052 36.84 171.512 36.3467 171.845 35.72C172.192 35.0933 172.365 34.3933 172.365 33.62C172.365 32.8467 172.192 32.1533 171.845 31.54C171.512 30.9267 171.052 30.44 170.465 30.08C169.892 29.72 169.245 29.54 168.525 29.54C167.805 29.54 167.152 29.72 166.565 30.08C165.992 30.44 165.532 30.9267 165.185 31.54C164.838 32.1533 164.665 32.8467 164.665 33.62C164.665 34.3933 164.838 35.0933 165.185 35.72C165.532 36.3467 165.992 36.84 166.565 37.2C167.152 37.56 167.805 37.74 168.525 37.74ZM176.61 39V28.28H178.11V30.36L177.77 30.28C178.037 29.5867 178.47 29.04 179.07 28.64C179.684 28.24 180.39 28.04 181.19 28.04C181.95 28.04 182.63 28.2133 183.23 28.56C183.844 28.9067 184.324 29.3867 184.67 30C185.03 30.6 185.21 31.28 185.21 32.04V39H183.71V32.62C183.71 31.9667 183.59 31.4133 183.35 30.96C183.124 30.5067 182.797 30.16 182.37 29.92C181.957 29.6667 181.477 29.54 180.93 29.54C180.384 29.54 179.897 29.6667 179.47 29.92C179.044 30.16 178.71 30.5133 178.47 30.98C178.23 31.4333 178.11 31.98 178.11 32.62V39H176.61Z" fill="#082333"/>
<path d="M25.2011 65V55.315H26.1111L31.7921 63.466H31.4411V55.315H32.4811V65H31.5711L25.8901 56.797H26.2411V65H25.2011ZM37.8934 65.156C37.2347 65.156 36.6367 65 36.0994 64.688C35.5621 64.3673 35.1331 63.934 34.8124 63.388C34.5004 62.8333 34.3444 62.205 34.3444 61.503C34.3444 60.8097 34.5004 60.19 34.8124 59.644C35.1244 59.098 35.5447 58.669 36.0734 58.357C36.6107 58.0363 37.2174 57.876 37.8934 57.876C38.5694 57.876 39.1717 58.032 39.7004 58.344C40.2377 58.656 40.6581 59.085 40.9614 59.631C41.2734 60.177 41.4294 60.801 41.4294 61.503C41.4294 62.2137 41.2691 62.8463 40.9484 63.401C40.6277 63.947 40.1987 64.376 39.6614 64.688C39.1327 65 38.5434 65.156 37.8934 65.156ZM37.8934 64.181C38.3614 64.181 38.7817 64.064 39.1544 63.83C39.5357 63.596 39.8347 63.2753 40.0514 62.868C40.2767 62.4607 40.3894 62.0057 40.3894 61.503C40.3894 61.0003 40.2767 60.5497 40.0514 60.151C39.8347 59.7523 39.5357 59.436 39.1544 59.202C38.7817 58.968 38.3614 58.851 37.8934 58.851C37.4254 58.851 37.0007 58.968 36.6194 59.202C36.2467 59.436 35.9477 59.7523 35.7224 60.151C35.4971 60.5497 35.3844 61.0003 35.3844 61.503C35.3844 62.0057 35.4971 62.4607 35.7224 62.868C35.9477 63.2753 36.2467 63.596 36.6194 63.83C37.0007 64.064 37.4254 64.181 37.8934 64.181ZM48.5299 65.156C47.8799 65.156 47.2906 65 46.7619 64.688C46.2419 64.3673 45.8303 63.9297 45.5269 63.375C45.2236 62.8203 45.0719 62.192 45.0719 61.49C45.0719 60.788 45.2193 60.1683 45.5139 59.631C45.8086 59.085 46.2073 58.656 46.7099 58.344C47.2213 58.032 47.7933 57.876 48.4259 57.876C48.9286 57.876 49.3749 57.9713 49.7649 58.162C50.1636 58.344 50.5016 58.5953 50.7789 58.916C51.0563 59.228 51.2686 59.5833 51.4159 59.982C51.5633 60.372 51.6369 60.775 51.6369 61.191C51.6369 61.2777 51.6326 61.3773 51.6239 61.49C51.6153 61.594 51.6023 61.7023 51.5849 61.815H45.6959V60.905H51.0259L50.5579 61.295C50.6359 60.8183 50.5796 60.3937 50.3889 60.021C50.2069 59.6397 49.9426 59.3407 49.5959 59.124C49.2493 58.8987 48.8593 58.786 48.4259 58.786C47.9926 58.786 47.5896 58.8987 47.2169 59.124C46.8529 59.3493 46.5669 59.6657 46.3589 60.073C46.1509 60.4717 46.0686 60.9483 46.1119 61.503C46.0686 62.0577 46.1553 62.543 46.3719 62.959C46.5973 63.3663 46.9006 63.6827 47.2819 63.908C47.6719 64.1333 48.0879 64.246 48.5299 64.246C49.0413 64.246 49.4703 64.1247 49.8169 63.882C50.1636 63.6393 50.4453 63.336 50.6619 62.972L51.4939 63.414C51.3553 63.726 51.1429 64.0163 50.8569 64.285C50.5709 64.545 50.2286 64.7573 49.8299 64.922C49.4399 65.078 49.0066 65.156 48.5299 65.156ZM52.371 65L54.815 61.516L52.384 58.032H53.58L55.738 61.165H55.075L57.22 58.032H58.416L55.985 61.516L58.416 65H57.22L55.075 61.867H55.738L53.58 65H52.371ZM62.229 65.078C61.605 65.078 61.124 64.896 60.786 64.532C60.448 64.168 60.279 63.648 60.279 62.972V59.007H58.992V58.032H59.317C59.6117 58.032 59.8457 57.9367 60.019 57.746C60.1923 57.5467 60.279 57.2997 60.279 57.005V56.42H61.254V58.032H62.788V59.007H61.254V62.972C61.254 63.206 61.2887 63.414 61.358 63.596C61.4273 63.7693 61.5443 63.908 61.709 64.012C61.8823 64.116 62.112 64.168 62.398 64.168C62.4673 64.168 62.5497 64.1637 62.645 64.155C62.7403 64.1463 62.8227 64.1377 62.892 64.129V65C62.788 65.026 62.671 65.0433 62.541 65.052C62.411 65.0693 62.307 65.078 62.229 65.078ZM64.604 65V58.032H65.579V59.176L65.449 59.007C65.6137 58.6777 65.8607 58.4177 66.19 58.227C66.528 58.0363 66.9354 57.941 67.412 57.941H67.854V58.916H67.243C66.7404 58.916 66.3374 59.072 66.034 59.384C65.7307 59.696 65.579 60.138 65.579 60.71V65H64.604ZM71.0116 65.156C70.5696 65.156 70.1753 65.0737 69.8286 64.909C69.4819 64.7357 69.2089 64.5017 69.0096 64.207C68.8103 63.9123 68.7106 63.5743 68.7106 63.193C68.7106 62.829 68.7886 62.4997 68.9446 62.205C69.1006 61.9017 69.3433 61.646 69.6726 61.438C70.0019 61.23 70.4223 61.0827 70.9336 60.996L73.6636 60.541V61.425L71.1676 61.841C70.6649 61.9277 70.3009 62.088 70.0756 62.322C69.8589 62.556 69.7506 62.8333 69.7506 63.154C69.7506 63.466 69.8719 63.7303 70.1146 63.947C70.3659 64.1637 70.6866 64.272 71.0766 64.272C71.5533 64.272 71.9693 64.1723 72.3246 63.973C72.6799 63.765 72.9573 63.4877 73.1566 63.141C73.3559 62.7943 73.4556 62.4087 73.4556 61.984V60.216C73.4556 59.8 73.3039 59.462 73.0006 59.202C72.6973 58.942 72.3029 58.812 71.8176 58.812C71.3929 58.812 71.0203 58.9203 70.6996 59.137C70.3789 59.345 70.1406 59.618 69.9846 59.956L69.1006 59.475C69.2306 59.1803 69.4343 58.9117 69.7116 58.669C69.9976 58.4263 70.3226 58.2357 70.6866 58.097C71.0506 57.9497 71.4276 57.876 71.8176 57.876C72.3289 57.876 72.7796 57.9757 73.1696 58.175C73.5683 58.3743 73.8759 58.6517 74.0926 59.007C74.3179 59.3537 74.4306 59.7567 74.4306 60.216V65H73.4556V63.609L73.5986 63.752C73.4773 64.012 73.2866 64.2503 73.0266 64.467C72.7753 64.675 72.4763 64.844 72.1296 64.974C71.7916 65.0953 71.4189 65.156 71.0116 65.156ZM81.83 65.156C81.1454 65.156 80.543 64.9957 80.023 64.675C79.503 64.3543 79.0957 63.921 78.801 63.375C78.5064 62.8203 78.359 62.1963 78.359 61.503C78.359 60.8097 78.5064 60.19 78.801 59.644C79.0957 59.098 79.503 58.669 80.023 58.357C80.543 58.0363 81.1454 57.876 81.83 57.876C82.2634 57.876 82.6707 57.954 83.052 58.11C83.4334 58.266 83.7714 58.4783 84.066 58.747C84.3607 59.007 84.5817 59.3103 84.729 59.657L83.845 60.112C83.6717 59.7393 83.4074 59.436 83.052 59.202C82.6967 58.968 82.2894 58.851 81.83 58.851C81.3707 58.851 80.9547 58.968 80.582 59.202C80.218 59.4273 79.9277 59.7437 79.711 60.151C79.503 60.5497 79.399 61.0047 79.399 61.516C79.399 62.0187 79.503 62.4737 79.711 62.881C79.9277 63.2797 80.218 63.596 80.582 63.83C80.9547 64.064 81.3707 64.181 81.83 64.181C82.2894 64.181 82.6924 64.064 83.039 63.83C83.3944 63.596 83.663 63.284 83.845 62.894L84.729 63.375C84.5817 63.713 84.3607 64.0163 84.066 64.285C83.7714 64.5537 83.4334 64.766 83.052 64.922C82.6707 65.078 82.2634 65.156 81.83 65.156ZM86.44 65V55.159H87.415V59.384L87.194 59.332C87.3673 58.8813 87.649 58.526 88.039 58.266C88.4376 58.006 88.897 57.876 89.417 57.876C89.911 57.876 90.353 57.9887 90.743 58.214C91.1416 58.4393 91.4536 58.7513 91.679 59.15C91.913 59.54 92.03 59.982 92.03 60.476V65H91.055V60.853C91.055 60.4283 90.977 60.0687 90.821 59.774C90.665 59.4793 90.4483 59.254 90.171 59.098C89.9023 58.9333 89.5946 58.851 89.248 58.851C88.9013 58.851 88.5893 58.9333 88.312 59.098C88.0346 59.254 87.8136 59.4837 87.649 59.787C87.493 60.0817 87.415 60.437 87.415 60.853V65H86.44ZM95.9071 65.156C95.4651 65.156 95.0708 65.0737 94.7241 64.909C94.3774 64.7357 94.1044 64.5017 93.9051 64.207C93.7058 63.9123 93.6061 63.5743 93.6061 63.193C93.6061 62.829 93.6841 62.4997 93.8401 62.205C93.9961 61.9017 94.2388 61.646 94.5681 61.438C94.8974 61.23 95.3178 61.0827 95.8291 60.996L98.5591 60.541V61.425L96.0631 61.841C95.5604 61.9277 95.1964 62.088 94.9711 62.322C94.7544 62.556 94.6461 62.8333 94.6461 63.154C94.6461 63.466 94.7674 63.7303 95.0101 63.947C95.2614 64.1637 95.5821 64.272 95.9721 64.272C96.4488 64.272 96.8648 64.1723 97.2201 63.973C97.5754 63.765 97.8528 63.4877 98.0521 63.141C98.2514 62.7943 98.3511 62.4087 98.3511 61.984V60.216C98.3511 59.8 98.1994 59.462 97.8961 59.202C97.5928 58.942 97.1984 58.812 96.7131 58.812C96.2884 58.812 95.9158 58.9203 95.5951 59.137C95.2744 59.345 95.0361 59.618 94.8801 59.956L93.9961 59.475C94.1261 59.1803 94.3298 58.9117 94.6071 58.669C94.8931 58.4263 95.2181 58.2357 95.5821 58.097C95.9461 57.9497 96.3231 57.876 96.7131 57.876C97.2244 57.876 97.6751 57.9757 98.0651 58.175C98.4638 58.3743 98.7714 58.6517 98.9881 59.007C99.2134 59.3537 99.3261 59.7567 99.3261 60.216V65H98.3511V63.609L98.4941 63.752C98.3728 64.012 98.1821 64.2503 97.9221 64.467C97.6708 64.675 97.3718 64.844 97.0251 64.974C96.6871 65.0953 96.3144 65.156 95.9071 65.156ZM101.332 65V58.032H102.307V59.176L102.177 59.007C102.341 58.6777 102.588 58.4177 102.918 58.227C103.256 58.0363 103.663 57.941 104.14 57.941H104.582V58.916H103.971C103.468 58.916 103.065 59.072 102.762 59.384C102.458 59.696 102.307 60.138 102.307 60.71V65H101.332ZM109.026 67.86C108.549 67.86 108.107 67.7863 107.7 67.639C107.301 67.4917 106.955 67.288 106.66 67.028C106.374 66.7767 106.153 66.482 105.997 66.144L106.894 65.663C107.033 65.9923 107.28 66.2783 107.635 66.521C107.99 66.7637 108.445 66.885 109 66.885C109.425 66.885 109.815 66.8027 110.17 66.638C110.525 66.4733 110.811 66.2307 111.028 65.91C111.245 65.5893 111.353 65.195 111.353 64.727V63.18L111.509 63.323C111.266 63.8257 110.907 64.2157 110.43 64.493C109.953 64.7617 109.433 64.896 108.87 64.896C108.22 64.896 107.635 64.74 107.115 64.428C106.595 64.116 106.183 63.6957 105.88 63.167C105.585 62.6297 105.438 62.036 105.438 61.386C105.438 60.7273 105.585 60.1337 105.88 59.605C106.183 59.0763 106.591 58.656 107.102 58.344C107.622 58.032 108.211 57.876 108.87 57.876C109.433 57.876 109.945 58.006 110.404 58.266C110.872 58.526 111.24 58.877 111.509 59.319L111.353 59.592V58.032H112.328V64.727C112.328 65.325 112.185 65.858 111.899 66.326C111.622 66.8027 111.232 67.1753 110.729 67.444C110.235 67.7213 109.667 67.86 109.026 67.86ZM108.922 63.921C109.373 63.921 109.78 63.8083 110.144 63.583C110.508 63.349 110.798 63.0413 111.015 62.66C111.24 62.27 111.353 61.8453 111.353 61.386C111.353 60.9267 111.24 60.5063 111.015 60.125C110.798 59.735 110.508 59.4273 110.144 59.202C109.78 58.968 109.373 58.851 108.922 58.851C108.463 58.851 108.047 58.968 107.674 59.202C107.301 59.4273 107.007 59.7307 106.79 60.112C106.582 60.4933 106.478 60.918 106.478 61.386C106.478 61.8453 106.582 62.27 106.79 62.66C107.007 63.0413 107.297 63.349 107.661 63.583C108.034 63.8083 108.454 63.921 108.922 63.921ZM117.504 65.156C116.854 65.156 116.264 65 115.736 64.688C115.216 64.3673 114.804 63.9297 114.501 63.375C114.197 62.8203 114.046 62.192 114.046 61.49C114.046 60.788 114.193 60.1683 114.488 59.631C114.782 59.085 115.181 58.656 115.684 58.344C116.195 58.032 116.767 57.876 117.4 57.876C117.902 57.876 118.349 57.9713 118.739 58.162C119.137 58.344 119.475 58.5953 119.753 58.916C120.03 59.228 120.242 59.5833 120.39 59.982C120.537 60.372 120.611 60.775 120.611 61.191C120.611 61.2777 120.606 61.3773 120.598 61.49C120.589 61.594 120.576 61.7023 120.559 61.815H114.67V60.905H120L119.532 61.295C119.61 60.8183 119.553 60.3937 119.363 60.021C119.181 59.6397 118.916 59.3407 118.57 59.124C118.223 58.8987 117.833 58.786 117.4 58.786C116.966 58.786 116.563 58.8987 116.191 59.124C115.827 59.3493 115.541 59.6657 115.333 60.073C115.125 60.4717 115.042 60.9483 115.086 61.503C115.042 62.0577 115.129 62.543 115.346 62.959C115.571 63.3663 115.874 63.6827 116.256 63.908C116.646 64.1333 117.062 64.246 117.504 64.246C118.015 64.246 118.444 64.1247 118.791 63.882C119.137 63.6393 119.419 63.336 119.636 62.972L120.468 63.414C120.329 63.726 120.117 64.0163 119.831 64.285C119.545 64.545 119.202 64.7573 118.804 64.922C118.414 65.078 117.98 65.156 117.504 65.156ZM124.748 65.156C124.08 65.156 123.495 64.987 122.993 64.649C122.49 64.311 122.126 63.8517 121.901 63.271L122.72 62.881C122.919 63.3057 123.196 63.6437 123.552 63.895C123.916 64.1463 124.314 64.272 124.748 64.272C125.164 64.272 125.515 64.1723 125.801 63.973C126.087 63.765 126.23 63.4963 126.23 63.167C126.23 62.9243 126.16 62.7337 126.022 62.595C125.883 62.4477 125.723 62.335 125.541 62.257C125.359 62.179 125.198 62.1227 125.06 62.088L124.059 61.802C123.417 61.62 122.954 61.3643 122.668 61.035C122.382 60.7057 122.239 60.3243 122.239 59.891C122.239 59.4837 122.343 59.1283 122.551 58.825C122.759 58.5217 123.04 58.2877 123.396 58.123C123.751 57.9583 124.145 57.876 124.579 57.876C125.168 57.876 125.701 58.032 126.178 58.344C126.663 58.6473 127.005 59.072 127.205 59.618L126.373 60.008C126.199 59.618 125.948 59.3147 125.619 59.098C125.298 58.8727 124.938 58.76 124.54 58.76C124.15 58.76 123.838 58.8597 123.604 59.059C123.37 59.2583 123.253 59.5097 123.253 59.813C123.253 60.047 123.313 60.2333 123.435 60.372C123.556 60.5107 123.695 60.6147 123.851 60.684C124.015 60.7533 124.158 60.8053 124.28 60.84L125.437 61.178C126 61.3427 126.438 61.5983 126.75 61.945C127.07 62.2917 127.231 62.699 127.231 63.167C127.231 63.5483 127.122 63.8907 126.906 64.194C126.698 64.4973 126.407 64.7357 126.035 64.909C125.662 65.0737 125.233 65.156 124.748 65.156Z" fill="#1E8ACC"/>
<rect x="251" y="31" width="44" height="24" rx="12" fill="#A8DEFF"/>
<g filter="url(#filter0_d_8_159)">
<rect x="253" y="33" width="20" height="20" rx="10" fill="white"/>
</g>
<rect y="118" width="319" height="86" rx="8" fill="#E9F7FF"/>
<path d="M26.2248 157V142.1H35.4248V143.6H27.8248V148.78H34.8248V150.28H27.8248V157H26.2248ZM37.0205 157V146.28H38.5205V148.04L38.3205 147.78C38.5738 147.273 38.9538 146.873 39.4605 146.58C39.9805 146.287 40.6071 146.14 41.3405 146.14H42.0205V147.64H41.0805C40.3071 147.64 39.6871 147.88 39.2205 148.36C38.7538 148.84 38.5205 149.52 38.5205 150.4V157H37.0205ZM48.6583 157.24C47.6583 157.24 46.7516 157 45.9383 156.52C45.1383 156.027 44.5049 155.353 44.0383 154.5C43.5716 153.647 43.3383 152.68 43.3383 151.6C43.3383 150.52 43.5649 149.567 44.0183 148.74C44.4716 147.9 45.0849 147.24 45.8583 146.76C46.6449 146.28 47.5249 146.04 48.4983 146.04C49.2716 146.04 49.9583 146.187 50.5583 146.48C51.1716 146.76 51.6916 147.147 52.1183 147.64C52.5449 148.12 52.8716 148.667 53.0983 149.28C53.3249 149.88 53.4383 150.5 53.4383 151.14C53.4383 151.273 53.4316 151.427 53.4183 151.6C53.4049 151.76 53.3849 151.927 53.3583 152.1H44.2983V150.7H52.4983L51.7783 151.3C51.8983 150.567 51.8116 149.913 51.5183 149.34C51.2383 148.753 50.8316 148.293 50.2983 147.96C49.7649 147.613 49.1649 147.44 48.4983 147.44C47.8316 147.44 47.2116 147.613 46.6383 147.96C46.0783 148.307 45.6383 148.793 45.3183 149.42C44.9983 150.033 44.8716 150.767 44.9383 151.62C44.8716 152.473 45.0049 153.22 45.3383 153.86C45.6849 154.487 46.1516 154.973 46.7383 155.32C47.3383 155.667 47.9783 155.84 48.6583 155.84C49.4449 155.84 50.1049 155.653 50.6383 155.28C51.1716 154.907 51.6049 154.44 51.9383 153.88L53.2183 154.56C53.0049 155.04 52.6783 155.487 52.2383 155.9C51.7983 156.3 51.2716 156.627 50.6583 156.88C50.0583 157.12 49.3916 157.24 48.6583 157.24ZM60.963 157.24C59.963 157.24 59.0563 157 58.243 156.52C57.443 156.027 56.8096 155.353 56.343 154.5C55.8763 153.647 55.643 152.68 55.643 151.6C55.643 150.52 55.8696 149.567 56.323 148.74C56.7763 147.9 57.3896 147.24 58.163 146.76C58.9496 146.28 59.8296 146.04 60.803 146.04C61.5763 146.04 62.263 146.187 62.863 146.48C63.4763 146.76 63.9963 147.147 64.423 147.64C64.8496 148.12 65.1763 148.667 65.403 149.28C65.6296 149.88 65.743 150.5 65.743 151.14C65.743 151.273 65.7363 151.427 65.723 151.6C65.7096 151.76 65.6896 151.927 65.663 152.1H56.603V150.7H64.803L64.083 151.3C64.203 150.567 64.1163 149.913 63.823 149.34C63.543 148.753 63.1363 148.293 62.603 147.96C62.0696 147.613 61.4696 147.44 60.803 147.44C60.1363 147.44 59.5163 147.613 58.943 147.96C58.383 148.307 57.943 148.793 57.623 149.42C57.303 150.033 57.1763 150.767 57.243 151.62C57.1763 152.473 57.3096 153.22 57.643 153.86C57.9896 154.487 58.4563 154.973 59.043 155.32C59.643 155.667 60.283 155.84 60.963 155.84C61.7496 155.84 62.4096 155.653 62.943 155.28C63.4763 154.907 63.9096 154.44 64.243 153.88L65.523 154.56C65.3096 155.04 64.983 155.487 64.543 155.9C64.103 156.3 63.5763 156.627 62.963 156.88C62.363 157.12 61.6963 157.24 60.963 157.24ZM76.6861 157.24C75.6328 157.24 74.7061 156.993 73.9061 156.5C73.1061 156.007 72.4794 155.34 72.0261 154.5C71.5728 153.647 71.3461 152.687 71.3461 151.62C71.3461 150.553 71.5728 149.6 72.0261 148.76C72.4794 147.92 73.1061 147.26 73.9061 146.78C74.7061 146.287 75.6328 146.04 76.6861 146.04C77.3528 146.04 77.9794 146.16 78.5661 146.4C79.1528 146.64 79.6728 146.967 80.1261 147.38C80.5794 147.78 80.9194 148.247 81.1461 148.78L79.7861 149.48C79.5194 148.907 79.1128 148.44 78.5661 148.08C78.0194 147.72 77.3928 147.54 76.6861 147.54C75.9794 147.54 75.3394 147.72 74.7661 148.08C74.2061 148.427 73.7594 148.913 73.4261 149.54C73.1061 150.153 72.9461 150.853 72.9461 151.64C72.9461 152.413 73.1061 153.113 73.4261 153.74C73.7594 154.353 74.2061 154.84 74.7661 155.2C75.3394 155.56 75.9794 155.74 76.6861 155.74C77.3928 155.74 78.0128 155.56 78.5461 155.2C79.0928 154.84 79.5061 154.36 79.7861 153.76L81.1461 154.5C80.9194 155.02 80.5794 155.487 80.1261 155.9C79.6728 156.313 79.1528 156.64 78.5661 156.88C77.9794 157.12 77.3528 157.24 76.6861 157.24ZM86.683 157.24C86.003 157.24 85.3963 157.113 84.863 156.86C84.3296 156.593 83.9096 156.233 83.603 155.78C83.2963 155.327 83.143 154.807 83.143 154.22C83.143 153.66 83.263 153.153 83.503 152.7C83.743 152.233 84.1163 151.84 84.623 151.52C85.1296 151.2 85.7763 150.973 86.563 150.84L90.763 150.14V151.5L86.923 152.14C86.1496 152.273 85.5896 152.52 85.243 152.88C84.9096 153.24 84.743 153.667 84.743 154.16C84.743 154.64 84.9296 155.047 85.303 155.38C85.6896 155.713 86.183 155.88 86.783 155.88C87.5163 155.88 88.1563 155.727 88.703 155.42C89.2496 155.1 89.6763 154.673 89.983 154.14C90.2896 153.607 90.443 153.013 90.443 152.36V149.64C90.443 149 90.2096 148.48 89.743 148.08C89.2763 147.68 88.6696 147.48 87.923 147.48C87.2696 147.48 86.6963 147.647 86.203 147.98C85.7096 148.3 85.343 148.72 85.103 149.24L83.743 148.5C83.943 148.047 84.2563 147.633 84.683 147.26C85.123 146.887 85.623 146.593 86.183 146.38C86.743 146.153 87.323 146.04 87.923 146.04C88.7096 146.04 89.403 146.193 90.003 146.5C90.6163 146.807 91.0896 147.233 91.423 147.78C91.7696 148.313 91.943 148.933 91.943 149.64V157H90.443V154.86L90.663 155.08C90.4763 155.48 90.183 155.847 89.783 156.18C89.3963 156.5 88.9363 156.76 88.403 156.96C87.883 157.147 87.3096 157.24 86.683 157.24ZM95.0283 157V146.28H96.5283V148.36L96.1883 148.28C96.4549 147.587 96.8883 147.04 97.4883 146.64C98.1016 146.24 98.8083 146.04 99.6083 146.04C100.368 146.04 101.048 146.213 101.648 146.56C102.262 146.907 102.742 147.387 103.088 148C103.448 148.6 103.628 149.28 103.628 150.04V157H102.128V150.62C102.128 149.967 102.008 149.413 101.768 148.96C101.542 148.507 101.215 148.16 100.788 147.92C100.375 147.667 99.8949 147.54 99.3483 147.54C98.8016 147.54 98.3149 147.667 97.8883 147.92C97.4616 148.16 97.1283 148.513 96.8883 148.98C96.6483 149.433 96.5283 149.98 96.5283 150.62V157H95.0283ZM111.393 157.24C110.34 157.24 109.413 156.993 108.613 156.5C107.813 156.007 107.186 155.34 106.733 154.5C106.28 153.647 106.053 152.687 106.053 151.62C106.053 150.553 106.28 149.6 106.733 148.76C107.186 147.92 107.813 147.26 108.613 146.78C109.413 146.287 110.34 146.04 111.393 146.04C112.06 146.04 112.686 146.16 113.273 146.4C113.86 146.64 114.38 146.967 114.833 147.38C115.286 147.78 115.626 148.247 115.853 148.78L114.493 149.48C114.226 148.907 113.82 148.44 113.273 148.08C112.726 147.72 112.1 147.54 111.393 147.54C110.686 147.54 110.046 147.72 109.473 148.08C108.913 148.427 108.466 148.913 108.133 149.54C107.813 150.153 107.653 150.853 107.653 151.64C107.653 152.413 107.813 153.113 108.133 153.74C108.466 154.353 108.913 154.84 109.473 155.2C110.046 155.56 110.686 155.74 111.393 155.74C112.1 155.74 112.72 155.56 113.253 155.2C113.8 154.84 114.213 154.36 114.493 153.76L115.853 154.5C115.626 155.02 115.286 155.487 114.833 155.9C114.38 156.313 113.86 156.64 113.273 156.88C112.686 157.12 112.06 157.24 111.393 157.24ZM123.365 157.24C122.365 157.24 121.459 157 120.645 156.52C119.845 156.027 119.212 155.353 118.745 154.5C118.279 153.647 118.045 152.68 118.045 151.6C118.045 150.52 118.272 149.567 118.725 148.74C119.179 147.9 119.792 147.24 120.565 146.76C121.352 146.28 122.232 146.04 123.205 146.04C123.979 146.04 124.665 146.187 125.265 146.48C125.879 146.76 126.399 147.147 126.825 147.64C127.252 148.12 127.579 148.667 127.805 149.28C128.032 149.88 128.145 150.5 128.145 151.14C128.145 151.273 128.139 151.427 128.125 151.6C128.112 151.76 128.092 151.927 128.065 152.1H119.005V150.7H127.205L126.485 151.3C126.605 150.567 126.519 149.913 126.225 149.34C125.945 148.753 125.539 148.293 125.005 147.96C124.472 147.613 123.872 147.44 123.205 147.44C122.539 147.44 121.919 147.613 121.345 147.96C120.785 148.307 120.345 148.793 120.025 149.42C119.705 150.033 119.579 150.767 119.645 151.62C119.579 152.473 119.712 153.22 120.045 153.86C120.392 154.487 120.859 154.973 121.445 155.32C122.045 155.667 122.685 155.84 123.365 155.84C124.152 155.84 124.812 155.653 125.345 155.28C125.879 154.907 126.312 154.44 126.645 153.88L127.925 154.56C127.712 155.04 127.385 155.487 126.945 155.9C126.505 156.3 125.979 156.627 125.365 156.88C124.765 157.12 124.099 157.24 123.365 157.24ZM130.79 157V141.86H132.29V157H130.79ZM135.36 157V141.86H136.86V157H135.36ZM143.031 157.24C142.351 157.24 141.744 157.113 141.211 156.86C140.677 156.593 140.257 156.233 139.951 155.78C139.644 155.327 139.491 154.807 139.491 154.22C139.491 153.66 139.611 153.153 139.851 152.7C140.091 152.233 140.464 151.84 140.971 151.52C141.477 151.2 142.124 150.973 142.911 150.84L147.111 150.14V151.5L143.271 152.14C142.497 152.273 141.937 152.52 141.591 152.88C141.257 153.24 141.091 153.667 141.091 154.16C141.091 154.64 141.277 155.047 141.651 155.38C142.037 155.713 142.531 155.88 143.131 155.88C143.864 155.88 144.504 155.727 145.051 155.42C145.597 155.1 146.024 154.673 146.331 154.14C146.637 153.607 146.791 153.013 146.791 152.36V149.64C146.791 149 146.557 148.48 146.091 148.08C145.624 147.68 145.017 147.48 144.271 147.48C143.617 147.48 143.044 147.647 142.551 147.98C142.057 148.3 141.691 148.72 141.451 149.24L140.091 148.5C140.291 148.047 140.604 147.633 141.031 147.26C141.471 146.887 141.971 146.593 142.531 146.38C143.091 146.153 143.671 146.04 144.271 146.04C145.057 146.04 145.751 146.193 146.351 146.5C146.964 146.807 147.437 147.233 147.771 147.78C148.117 148.313 148.291 148.933 148.291 149.64V157H146.791V154.86L147.011 155.08C146.824 155.48 146.531 155.847 146.131 156.18C145.744 156.5 145.284 156.76 144.751 156.96C144.231 157.147 143.657 157.24 143.031 157.24ZM155.281 157.12C154.321 157.12 153.581 156.84 153.061 156.28C152.541 155.72 152.281 154.92 152.281 153.88V147.78H150.301V146.28H150.801C151.254 146.28 151.614 146.133 151.881 145.84C152.147 145.533 152.281 145.153 152.281 144.7V143.8H153.781V146.28H156.141V147.78H153.781V153.88C153.781 154.24 153.834 154.56 153.941 154.84C154.047 155.107 154.227 155.32 154.481 155.48C154.747 155.64 155.101 155.72 155.541 155.72C155.647 155.72 155.774 155.713 155.921 155.7C156.067 155.687 156.194 155.673 156.301 155.66V157C156.141 157.04 155.961 157.067 155.761 157.08C155.561 157.107 155.401 157.12 155.281 157.12ZM158.935 157V146.28H160.435V157H158.935ZM158.935 144.3V142.1H160.435V144.3H158.935ZM168.525 157.24C167.512 157.24 166.592 157 165.765 156.52C164.938 156.027 164.278 155.36 163.785 154.52C163.305 153.667 163.065 152.7 163.065 151.62C163.065 150.553 163.305 149.6 163.785 148.76C164.265 147.92 164.912 147.26 165.725 146.78C166.552 146.287 167.485 146.04 168.525 146.04C169.565 146.04 170.492 146.28 171.305 146.76C172.132 147.24 172.778 147.9 173.245 148.74C173.725 149.58 173.965 150.54 173.965 151.62C173.965 152.713 173.718 153.687 173.225 154.54C172.732 155.38 172.072 156.04 171.245 156.52C170.432 157 169.525 157.24 168.525 157.24ZM168.525 155.74C169.245 155.74 169.892 155.56 170.465 155.2C171.052 154.84 171.512 154.347 171.845 153.72C172.192 153.093 172.365 152.393 172.365 151.62C172.365 150.847 172.192 150.153 171.845 149.54C171.512 148.927 171.052 148.44 170.465 148.08C169.892 147.72 169.245 147.54 168.525 147.54C167.805 147.54 167.152 147.72 166.565 148.08C165.992 148.44 165.532 148.927 165.185 149.54C164.838 150.153 164.665 150.847 164.665 151.62C164.665 152.393 164.838 153.093 165.185 153.72C165.532 154.347 165.992 154.84 166.565 155.2C167.152 155.56 167.805 155.74 168.525 155.74ZM176.61 157V146.28H178.11V148.36L177.77 148.28C178.037 147.587 178.47 147.04 179.07 146.64C179.684 146.24 180.39 146.04 181.19 146.04C181.95 146.04 182.63 146.213 183.23 146.56C183.844 146.907 184.324 147.387 184.67 148C185.03 148.6 185.21 149.28 185.21 150.04V157H183.71V150.62C183.71 149.967 183.59 149.413 183.35 148.96C183.124 148.507 182.797 148.16 182.37 147.92C181.957 147.667 181.477 147.54 180.93 147.54C180.384 147.54 179.897 147.667 179.47 147.92C179.044 148.16 178.71 148.513 178.47 148.98C178.23 149.433 178.11 149.98 178.11 150.62V157H176.61Z" fill="#082333"/>
<path d="M25.2011 183V173.315H26.1111L31.7921 181.466H31.4411V173.315H32.4811V183H31.5711L25.8901 174.797H26.2411V183H25.2011ZM37.8934 183.156C37.2347 183.156 36.6367 183 36.0994 182.688C35.5621 182.367 35.1331 181.934 34.8124 181.388C34.5004 180.833 34.3444 180.205 34.3444 179.503C34.3444 178.81 34.5004 178.19 34.8124 177.644C35.1244 177.098 35.5447 176.669 36.0734 176.357C36.6107 176.036 37.2174 175.876 37.8934 175.876C38.5694 175.876 39.1717 176.032 39.7004 176.344C40.2377 176.656 40.6581 177.085 40.9614 177.631C41.2734 178.177 41.4294 178.801 41.4294 179.503C41.4294 180.214 41.2691 180.846 40.9484 181.401C40.6277 181.947 40.1987 182.376 39.6614 182.688C39.1327 183 38.5434 183.156 37.8934 183.156ZM37.8934 182.181C38.3614 182.181 38.7817 182.064 39.1544 181.83C39.5357 181.596 39.8347 181.275 40.0514 180.868C40.2767 180.461 40.3894 180.006 40.3894 179.503C40.3894 179 40.2767 178.55 40.0514 178.151C39.8347 177.752 39.5357 177.436 39.1544 177.202C38.7817 176.968 38.3614 176.851 37.8934 176.851C37.4254 176.851 37.0007 176.968 36.6194 177.202C36.2467 177.436 35.9477 177.752 35.7224 178.151C35.4971 178.55 35.3844 179 35.3844 179.503C35.3844 180.006 35.4971 180.461 35.7224 180.868C35.9477 181.275 36.2467 181.596 36.6194 181.83C37.0007 182.064 37.4254 182.181 37.8934 182.181ZM48.5299 183.156C47.8799 183.156 47.2906 183 46.7619 182.688C46.2419 182.367 45.8303 181.93 45.5269 181.375C45.2236 180.82 45.0719 180.192 45.0719 179.49C45.0719 178.788 45.2193 178.168 45.5139 177.631C45.8086 177.085 46.2073 176.656 46.7099 176.344C47.2213 176.032 47.7933 175.876 48.4259 175.876C48.9286 175.876 49.3749 175.971 49.7649 176.162C50.1636 176.344 50.5016 176.595 50.7789 176.916C51.0563 177.228 51.2686 177.583 51.4159 177.982C51.5633 178.372 51.6369 178.775 51.6369 179.191C51.6369 179.278 51.6326 179.377 51.6239 179.49C51.6153 179.594 51.6023 179.702 51.5849 179.815H45.6959V178.905H51.0259L50.5579 179.295C50.6359 178.818 50.5796 178.394 50.3889 178.021C50.2069 177.64 49.9426 177.341 49.5959 177.124C49.2493 176.899 48.8593 176.786 48.4259 176.786C47.9926 176.786 47.5896 176.899 47.2169 177.124C46.8529 177.349 46.5669 177.666 46.3589 178.073C46.1509 178.472 46.0686 178.948 46.1119 179.503C46.0686 180.058 46.1553 180.543 46.3719 180.959C46.5973 181.366 46.9006 181.683 47.2819 181.908C47.6719 182.133 48.0879 182.246 48.5299 182.246C49.0413 182.246 49.4703 182.125 49.8169 181.882C50.1636 181.639 50.4453 181.336 50.6619 180.972L51.4939 181.414C51.3553 181.726 51.1429 182.016 50.8569 182.285C50.5709 182.545 50.2286 182.757 49.8299 182.922C49.4399 183.078 49.0066 183.156 48.5299 183.156ZM52.371 183L54.815 179.516L52.384 176.032H53.58L55.738 179.165H55.075L57.22 176.032H58.416L55.985 179.516L58.416 183H57.22L55.075 179.867H55.738L53.58 183H52.371ZM62.229 183.078C61.605 183.078 61.124 182.896 60.786 182.532C60.448 182.168 60.279 181.648 60.279 180.972V177.007H58.992V176.032H59.317C59.6117 176.032 59.8457 175.937 60.019 175.746C60.1923 175.547 60.279 175.3 60.279 175.005V174.42H61.254V176.032H62.788V177.007H61.254V180.972C61.254 181.206 61.2887 181.414 61.358 181.596C61.4273 181.769 61.5443 181.908 61.709 182.012C61.8823 182.116 62.112 182.168 62.398 182.168C62.4673 182.168 62.5497 182.164 62.645 182.155C62.7403 182.146 62.8227 182.138 62.892 182.129V183C62.788 183.026 62.671 183.043 62.541 183.052C62.411 183.069 62.307 183.078 62.229 183.078ZM64.604 183V176.032H65.579V177.176L65.449 177.007C65.6137 176.678 65.8607 176.418 66.19 176.227C66.528 176.036 66.9354 175.941 67.412 175.941H67.854V176.916H67.243C66.7404 176.916 66.3374 177.072 66.034 177.384C65.7307 177.696 65.579 178.138 65.579 178.71V183H64.604ZM71.0116 183.156C70.5696 183.156 70.1753 183.074 69.8286 182.909C69.4819 182.736 69.2089 182.502 69.0096 182.207C68.8103 181.912 68.7106 181.574 68.7106 181.193C68.7106 180.829 68.7886 180.5 68.9446 180.205C69.1006 179.902 69.3433 179.646 69.6726 179.438C70.0019 179.23 70.4223 179.083 70.9336 178.996L73.6636 178.541V179.425L71.1676 179.841C70.6649 179.928 70.3009 180.088 70.0756 180.322C69.8589 180.556 69.7506 180.833 69.7506 181.154C69.7506 181.466 69.8719 181.73 70.1146 181.947C70.3659 182.164 70.6866 182.272 71.0766 182.272C71.5533 182.272 71.9693 182.172 72.3246 181.973C72.6799 181.765 72.9573 181.488 73.1566 181.141C73.3559 180.794 73.4556 180.409 73.4556 179.984V178.216C73.4556 177.8 73.3039 177.462 73.0006 177.202C72.6973 176.942 72.3029 176.812 71.8176 176.812C71.3929 176.812 71.0203 176.92 70.6996 177.137C70.3789 177.345 70.1406 177.618 69.9846 177.956L69.1006 177.475C69.2306 177.18 69.4343 176.912 69.7116 176.669C69.9976 176.426 70.3226 176.236 70.6866 176.097C71.0506 175.95 71.4276 175.876 71.8176 175.876C72.3289 175.876 72.7796 175.976 73.1696 176.175C73.5683 176.374 73.8759 176.652 74.0926 177.007C74.3179 177.354 74.4306 177.757 74.4306 178.216V183H73.4556V181.609L73.5986 181.752C73.4773 182.012 73.2866 182.25 73.0266 182.467C72.7753 182.675 72.4763 182.844 72.1296 182.974C71.7916 183.095 71.4189 183.156 71.0116 183.156ZM81.83 183.156C81.1454 183.156 80.543 182.996 80.023 182.675C79.503 182.354 79.0957 181.921 78.801 181.375C78.5064 180.82 78.359 180.196 78.359 179.503C78.359 178.81 78.5064 178.19 78.801 177.644C79.0957 177.098 79.503 176.669 80.023 176.357C80.543 176.036 81.1454 175.876 81.83 175.876C82.2634 175.876 82.6707 175.954 83.052 176.11C83.4334 176.266 83.7714 176.478 84.066 176.747C84.3607 177.007 84.5817 177.31 84.729 177.657L83.845 178.112C83.6717 177.739 83.4074 177.436 83.052 177.202C82.6967 176.968 82.2894 176.851 81.83 176.851C81.3707 176.851 80.9547 176.968 80.582 177.202C80.218 177.427 79.9277 177.744 79.711 178.151C79.503 178.55 79.399 179.005 79.399 179.516C79.399 180.019 79.503 180.474 79.711 180.881C79.9277 181.28 80.218 181.596 80.582 181.83C80.9547 182.064 81.3707 182.181 81.83 182.181C82.2894 182.181 82.6924 182.064 83.039 181.83C83.3944 181.596 83.663 181.284 83.845 180.894L84.729 181.375C84.5817 181.713 84.3607 182.016 84.066 182.285C83.7714 182.554 83.4334 182.766 83.052 182.922C82.6707 183.078 82.2634 183.156 81.83 183.156ZM86.44 183V173.159H87.415V177.384L87.194 177.332C87.3673 176.881 87.649 176.526 88.039 176.266C88.4376 176.006 88.897 175.876 89.417 175.876C89.911 175.876 90.353 175.989 90.743 176.214C91.1416 176.439 91.4536 176.751 91.679 177.15C91.913 177.54 92.03 177.982 92.03 178.476V183H91.055V178.853C91.055 178.428 90.977 178.069 90.821 177.774C90.665 177.479 90.4483 177.254 90.171 177.098C89.9023 176.933 89.5946 176.851 89.248 176.851C88.9013 176.851 88.5893 176.933 88.312 177.098C88.0346 177.254 87.8136 177.484 87.649 177.787C87.493 178.082 87.415 178.437 87.415 178.853V183H86.44ZM95.9071 183.156C95.4651 183.156 95.0708 183.074 94.7241 182.909C94.3774 182.736 94.1044 182.502 93.9051 182.207C93.7058 181.912 93.6061 181.574 93.6061 181.193C93.6061 180.829 93.6841 180.5 93.8401 180.205C93.9961 179.902 94.2388 179.646 94.5681 179.438C94.8974 179.23 95.3178 179.083 95.8291 178.996L98.5591 178.541V179.425L96.0631 179.841C95.5604 179.928 95.1964 180.088 94.9711 180.322C94.7544 180.556 94.6461 180.833 94.6461 181.154C94.6461 181.466 94.7674 181.73 95.0101 181.947C95.2614 182.164 95.5821 182.272 95.9721 182.272C96.4488 182.272 96.8648 182.172 97.2201 181.973C97.5754 181.765 97.8528 181.488 98.0521 181.141C98.2514 180.794 98.3511 180.409 98.3511 179.984V178.216C98.3511 177.8 98.1994 177.462 97.8961 177.202C97.5928 176.942 97.1984 176.812 96.7131 176.812C96.2884 176.812 95.9158 176.92 95.5951 177.137C95.2744 177.345 95.0361 177.618 94.8801 177.956L93.9961 177.475C94.1261 177.18 94.3298 176.912 94.6071 176.669C94.8931 176.426 95.2181 176.236 95.5821 176.097C95.9461 175.95 96.3231 175.876 96.7131 175.876C97.2244 175.876 97.6751 175.976 98.0651 176.175C98.4638 176.374 98.7714 176.652 98.9881 177.007C99.2134 177.354 99.3261 177.757 99.3261 178.216V183H98.3511V181.609L98.4941 181.752C98.3728 182.012 98.1821 182.25 97.9221 182.467C97.6708 182.675 97.3718 182.844 97.0251 182.974C96.6871 183.095 96.3144 183.156 95.9071 183.156ZM101.332 183V176.032H102.307V177.176L102.177 177.007C102.341 176.678 102.588 176.418 102.918 176.227C103.256 176.036 103.663 175.941 104.14 175.941H104.582V176.916H103.971C103.468 176.916 103.065 177.072 102.762 177.384C102.458 177.696 102.307 178.138 102.307 178.71V183H101.332ZM109.026 185.86C108.549 185.86 108.107 185.786 107.7 185.639C107.301 185.492 106.955 185.288 106.66 185.028C106.374 184.777 106.153 184.482 105.997 184.144L106.894 183.663C107.033 183.992 107.28 184.278 107.635 184.521C107.99 184.764 108.445 184.885 109 184.885C109.425 184.885 109.815 184.803 110.17 184.638C110.525 184.473 110.811 184.231 111.028 183.91C111.245 183.589 111.353 183.195 111.353 182.727V181.18L111.509 181.323C111.266 181.826 110.907 182.216 110.43 182.493C109.953 182.762 109.433 182.896 108.87 182.896C108.22 182.896 107.635 182.74 107.115 182.428C106.595 182.116 106.183 181.696 105.88 181.167C105.585 180.63 105.438 180.036 105.438 179.386C105.438 178.727 105.585 178.134 105.88 177.605C106.183 177.076 106.591 176.656 107.102 176.344C107.622 176.032 108.211 175.876 108.87 175.876C109.433 175.876 109.945 176.006 110.404 176.266C110.872 176.526 111.24 176.877 111.509 177.319L111.353 177.592V176.032H112.328V182.727C112.328 183.325 112.185 183.858 111.899 184.326C111.622 184.803 111.232 185.175 110.729 185.444C110.235 185.721 109.667 185.86 109.026 185.86ZM108.922 181.921C109.373 181.921 109.78 181.808 110.144 181.583C110.508 181.349 110.798 181.041 111.015 180.66C111.24 180.27 111.353 179.845 111.353 179.386C111.353 178.927 111.24 178.506 111.015 178.125C110.798 177.735 110.508 177.427 110.144 177.202C109.78 176.968 109.373 176.851 108.922 176.851C108.463 176.851 108.047 176.968 107.674 177.202C107.301 177.427 107.007 177.731 106.79 178.112C106.582 178.493 106.478 178.918 106.478 179.386C106.478 179.845 106.582 180.27 106.79 180.66C107.007 181.041 107.297 181.349 107.661 181.583C108.034 181.808 108.454 181.921 108.922 181.921ZM117.504 183.156C116.854 183.156 116.264 183 115.736 182.688C115.216 182.367 114.804 181.93 114.501 181.375C114.197 180.82 114.046 180.192 114.046 179.49C114.046 178.788 114.193 178.168 114.488 177.631C114.782 177.085 115.181 176.656 115.684 176.344C116.195 176.032 116.767 175.876 117.4 175.876C117.902 175.876 118.349 175.971 118.739 176.162C119.137 176.344 119.475 176.595 119.753 176.916C120.03 177.228 120.242 177.583 120.39 177.982C120.537 178.372 120.611 178.775 120.611 179.191C120.611 179.278 120.606 179.377 120.598 179.49C120.589 179.594 120.576 179.702 120.559 179.815H114.67V178.905H120L119.532 179.295C119.61 178.818 119.553 178.394 119.363 178.021C119.181 177.64 118.916 177.341 118.57 177.124C118.223 176.899 117.833 176.786 117.4 176.786C116.966 176.786 116.563 176.899 116.191 177.124C115.827 177.349 115.541 177.666 115.333 178.073C115.125 178.472 115.042 178.948 115.086 179.503C115.042 180.058 115.129 180.543 115.346 180.959C115.571 181.366 115.874 181.683 116.256 181.908C116.646 182.133 117.062 182.246 117.504 182.246C118.015 182.246 118.444 182.125 118.791 181.882C119.137 181.639 119.419 181.336 119.636 180.972L120.468 181.414C120.329 181.726 120.117 182.016 119.831 182.285C119.545 182.545 119.202 182.757 118.804 182.922C118.414 183.078 117.98 183.156 117.504 183.156ZM124.748 183.156C124.08 183.156 123.495 182.987 122.993 182.649C122.49 182.311 122.126 181.852 121.901 181.271L122.72 180.881C122.919 181.306 123.196 181.644 123.552 181.895C123.916 182.146 124.314 182.272 124.748 182.272C125.164 182.272 125.515 182.172 125.801 181.973C126.087 181.765 126.23 181.496 126.23 181.167C126.23 180.924 126.16 180.734 126.022 180.595C125.883 180.448 125.723 180.335 125.541 180.257C125.359 180.179 125.198 180.123 125.06 180.088L124.059 179.802C123.417 179.62 122.954 179.364 122.668 179.035C122.382 178.706 122.239 178.324 122.239 177.891C122.239 177.484 122.343 177.128 122.551 176.825C122.759 176.522 123.04 176.288 123.396 176.123C123.751 175.958 124.145 175.876 124.579 175.876C125.168 175.876 125.701 176.032 126.178 176.344C126.663 176.647 127.005 177.072 127.205 177.618L126.373 178.008C126.199 177.618 125.948 177.315 125.619 177.098C125.298 176.873 124.938 176.76 124.54 176.76C124.15 176.76 123.838 176.86 123.604 177.059C123.37 177.258 123.253 177.51 123.253 177.813C123.253 178.047 123.313 178.233 123.435 178.372C123.556 178.511 123.695 178.615 123.851 178.684C124.015 178.753 124.158 178.805 124.28 178.84L125.437 179.178C126 179.343 126.438 179.598 126.75 179.945C127.07 180.292 127.231 180.699 127.231 181.167C127.231 181.548 127.122 181.891 126.906 182.194C126.698 182.497 126.407 182.736 126.035 182.909C125.662 183.074 125.233 183.156 124.748 183.156Z" fill="#1E8ACC"/>
<rect x="251" y="149" width="44" height="24" rx="12" fill="#26ADFF"/>
<g filter="url(#filter1_d_8_159)">
<rect x="273" y="151" width="20" height="20" rx="10" fill="white"/>
</g>
<defs>
<filter id="filter0_d_8_159" x="250" y="30" width="28" height="28" filterUnits="userSpaceOnUse" color-interpolation-filters="sRGB">
<feFlood flood-opacity="0" result="BackgroundImageFix"/>
<feColorMatrix in="SourceAlpha" type="matrix" values="0 0 0 0 0 0 0 0 0 0 0 0 0 0 0 0 0 0 127 0" result="hardAlpha"/>
<feOffset dx="1" dy="1"/>
<feGaussianBlur stdDeviation="2"/>
<feComposite in2="hardAlpha" operator="out"/>
<feColorMatrix type="matrix" values="0 0 0 0 0 0 0 0 0 0 0 0 0 0 0 0 0 0 0.12 0"/>
<feBlend mode="normal" in2="BackgroundImageFix" result="effect1_dropShadow_8_159"/>
<feBlend mode="normal" in="SourceGraphic" in2="effect1_dropShadow_8_159" result="shape"/>
</filter>
<filter id="filter1_d_8_159" x="270" y="148" width="28" height="28" filterUnits="userSpaceOnUse" color-interpolation-filters="sRGB">
<feFlood flood-opacity="0" result="BackgroundImageFix"/>
<feColorMatrix in="SourceAlpha" type="matrix" values="0 0 0 0 0 0 0 0 0 0 0 0 0 0 0 0 0 0 127 0" result="hardAlpha"/>
<feOffset dx="1" dy="1"/>
<feGaussianBlur stdDeviation="2"/>
<feComposite in2="hardAlpha" operator="out"/>
<feColorMatrix type="matrix" values="0 0 0 0 0 0 0 0 0 0 0 0 0 0 0 0 0 0 0.12 0"/>
<feBlend mode="normal" in2="BackgroundImageFix" result="effect1_dropShadow_8_159"/>
<feBlend mode="normal" in="SourceGraphic" in2="effect1_dropShadow_8_159" result="shape"/>
</filter>
</defs>
</svg>
