<svg width="368" height="68" viewBox="0 0 368 68" fill="none" xmlns="http://www.w3.org/2000/svg">
<path d="M4.7775 62V48.6H0.6575V47.1H10.4575V48.6H6.3775V62H4.7775ZM12.2119 62V46.86H13.7119V53.36L13.3719 53.28C13.6385 52.5867 14.0719 52.04 14.6719 51.64C15.2852 51.24 15.9919 51.04 16.7919 51.04C17.5519 51.04 18.2319 51.2133 18.8319 51.56C19.4452 51.9067 19.9252 52.3867 20.2719 53C20.6319 53.6 20.8119 54.28 20.8119 55.04V62H19.3119V55.62C19.3119 54.9667 19.1919 54.4133 18.9519 53.96C18.7119 53.5067 18.3785 53.16 17.9519 52.92C17.5385 52.6667 17.0652 52.54 16.5319 52.54C15.9985 52.54 15.5185 52.6667 15.0919 52.92C14.6652 53.16 14.3252 53.5133 14.0719 53.98C13.8319 54.4333 13.7119 54.98 13.7119 55.62V62H12.2119ZM28.5567 62.24C27.5567 62.24 26.6501 62 25.8367 61.52C25.0367 61.0267 24.4034 60.3533 23.9367 59.5C23.4701 58.6467 23.2367 57.68 23.2367 56.6C23.2367 55.52 23.4634 54.5667 23.9167 53.74C24.3701 52.9 24.9834 52.24 25.7567 51.76C26.5434 51.28 27.4234 51.04 28.3967 51.04C29.1701 51.04 29.8567 51.1867 30.4567 51.48C31.0701 51.76 31.5901 52.1467 32.0167 52.64C32.4434 53.12 32.7701 53.6667 32.9967 54.28C33.2234 54.88 33.3367 55.5 33.3367 56.14C33.3367 56.2733 33.3301 56.4267 33.3167 56.6C33.3034 56.76 33.2834 56.9267 33.2567 57.1H24.1967V55.7H32.3967L31.6767 56.3C31.7967 55.5667 31.7101 54.9133 31.4167 54.34C31.1367 53.7533 30.7301 53.2933 30.1967 52.96C29.6634 52.6133 29.0634 52.44 28.3967 52.44C27.7301 52.44 27.1101 52.6133 26.5367 52.96C25.9767 53.3067 25.5367 53.7933 25.2167 54.42C24.8967 55.0333 24.7701 55.7667 24.8367 56.62C24.7701 57.4733 24.9034 58.22 25.2367 58.86C25.5834 59.4867 26.0501 59.9733 26.6367 60.32C27.2367 60.6667 27.8767 60.84 28.5567 60.84C29.3434 60.84 30.0034 60.6533 30.5367 60.28C31.0701 59.9067 31.5034 59.44 31.8367 58.88L33.1167 59.56C32.9034 60.04 32.5767 60.4867 32.1367 60.9C31.6967 61.3 31.1701 61.6267 30.5567 61.88C29.9567 62.12 29.2901 62.24 28.5567 62.24ZM43.1798 62.24C42.4332 62.24 41.7532 62.0667 41.1398 61.72C40.5265 61.36 40.0398 60.8667 39.6798 60.24C39.3332 59.6 39.1598 58.8667 39.1598 58.04V51.28H40.6598V57.86C40.6598 58.4333 40.7732 58.94 40.9998 59.38C41.2398 59.8067 41.5665 60.14 41.9798 60.38C42.4065 60.62 42.8932 60.74 43.4398 60.74C43.9865 60.74 44.4732 60.62 44.8998 60.38C45.3265 60.1267 45.6598 59.7733 45.8998 59.32C46.1398 58.8533 46.2598 58.3 46.2598 57.66V51.28H47.7598V62H46.2598V59.92L46.5998 60C46.3465 60.6933 45.9132 61.24 45.2998 61.64C44.6865 62.04 43.9798 62.24 43.1798 62.24ZM50.8447 62V51.28H52.3447V53.36L52.0047 53.28C52.2714 52.5867 52.7047 52.04 53.3047 51.64C53.918 51.24 54.6247 51.04 55.4247 51.04C56.1847 51.04 56.8647 51.2133 57.4647 51.56C58.078 51.9067 58.558 52.3867 58.9047 53C59.2647 53.6 59.4447 54.28 59.4447 55.04V62H57.9447V55.62C57.9447 54.9667 57.8247 54.4133 57.5847 53.96C57.358 53.5067 57.0314 53.16 56.6047 52.92C56.1914 52.6667 55.7114 52.54 55.1647 52.54C54.618 52.54 54.1314 52.6667 53.7047 52.92C53.278 53.16 52.9447 53.5133 52.7047 53.98C52.4647 54.4333 52.3447 54.98 52.3447 55.62V62H50.8447ZM62.3095 62V46.86H63.8095V62H62.3095ZM66.8798 62V51.28H68.3798V62H66.8798ZM66.8798 49.3V47.1H68.3798V49.3H66.8798ZM71.4502 62V51.28H72.9502V53.32L72.7102 53.02C73.0035 52.3933 73.4368 51.9067 74.0102 51.56C74.5968 51.2133 75.2368 51.04 75.9302 51.04C76.7568 51.04 77.5035 51.2733 78.1702 51.74C78.8368 52.2067 79.3102 52.8133 79.5902 53.56L79.1702 53.58C79.4368 52.7533 79.8968 52.1267 80.5502 51.7C81.2168 51.26 81.9502 51.04 82.7502 51.04C83.4702 51.04 84.1302 51.2133 84.7302 51.56C85.3435 51.9067 85.8302 52.3867 86.1902 53C86.5635 53.6 86.7502 54.28 86.7502 55.04V62H85.2502V55.62C85.2502 54.9667 85.1302 54.4133 84.8902 53.96C84.6635 53.5067 84.3502 53.16 83.9502 52.92C83.5502 52.6667 83.0902 52.54 82.5702 52.54C82.0635 52.54 81.6035 52.6667 81.1902 52.92C80.7768 53.16 80.4502 53.5133 80.2102 53.98C79.9702 54.4333 79.8502 54.98 79.8502 55.62V62H78.3502V55.62C78.3502 54.9667 78.2302 54.4133 77.9902 53.96C77.7635 53.5067 77.4502 53.16 77.0502 52.92C76.6502 52.6667 76.1902 52.54 75.6702 52.54C75.1502 52.54 74.6835 52.6667 74.2702 52.92C73.8702 53.16 73.5502 53.5133 73.3102 53.98C73.0702 54.4333 72.9502 54.98 72.9502 55.62V62H71.4502ZM89.6142 62V51.28H91.1142V62H89.6142ZM89.6142 49.3V47.1H91.1142V49.3H89.6142ZM98.2845 62.12C97.3245 62.12 96.5845 61.84 96.0645 61.28C95.5445 60.72 95.2845 59.92 95.2845 58.88V52.78H93.3045V51.28H93.8045C94.2579 51.28 94.6179 51.1333 94.8845 50.84C95.1512 50.5333 95.2845 50.1533 95.2845 49.7V48.8H96.7845V51.28H99.1445V52.78H96.7845V58.88C96.7845 59.24 96.8379 59.56 96.9445 59.84C97.0512 60.1067 97.2312 60.32 97.4845 60.48C97.7512 60.64 98.1045 60.72 98.5445 60.72C98.6512 60.72 98.7779 60.7133 98.9245 60.7C99.0712 60.6867 99.1979 60.6733 99.3045 60.66V62C99.1445 62.04 98.9645 62.0667 98.7645 62.08C98.5645 62.1067 98.4045 62.12 98.2845 62.12ZM106.428 62.24C105.428 62.24 104.521 62 103.708 61.52C102.908 61.0267 102.274 60.3533 101.808 59.5C101.341 58.6467 101.108 57.68 101.108 56.6C101.108 55.52 101.334 54.5667 101.788 53.74C102.241 52.9 102.854 52.24 103.628 51.76C104.414 51.28 105.294 51.04 106.268 51.04C107.041 51.04 107.728 51.1867 108.328 51.48C108.941 51.76 109.461 52.1467 109.888 52.64C110.314 53.12 110.641 53.6667 110.868 54.28C111.094 54.88 111.208 55.5 111.208 56.14C111.208 56.2733 111.201 56.4267 111.188 56.6C111.174 56.76 111.154 56.9267 111.128 57.1H102.068V55.7H110.268L109.548 56.3C109.668 55.5667 109.581 54.9133 109.288 54.34C109.008 53.7533 108.601 53.2933 108.068 52.96C107.534 52.6133 106.934 52.44 106.268 52.44C105.601 52.44 104.981 52.6133 104.408 52.96C103.848 53.3067 103.408 53.7933 103.088 54.42C102.768 55.0333 102.641 55.7667 102.708 56.62C102.641 57.4733 102.774 58.22 103.108 58.86C103.454 59.4867 103.921 59.9733 104.508 60.32C105.108 60.6667 105.748 60.84 106.428 60.84C107.214 60.84 107.874 60.6533 108.408 60.28C108.941 59.9067 109.374 59.44 109.708 58.88L110.988 59.56C110.774 60.04 110.448 60.4867 110.008 60.9C109.568 61.3 109.041 61.6267 108.428 61.88C107.828 62.12 107.161 62.24 106.428 62.24ZM118.693 62.24C117.693 62.24 116.793 62 115.993 61.52C115.193 61.0267 114.559 60.36 114.093 59.52C113.639 58.6667 113.413 57.7067 113.413 56.64C113.413 55.56 113.639 54.6 114.093 53.76C114.559 52.92 115.186 52.26 115.973 51.78C116.773 51.2867 117.679 51.04 118.693 51.04C119.613 51.04 120.433 51.24 121.153 51.64C121.873 52.04 122.439 52.58 122.853 53.26L122.613 53.68V46.86H124.113V62H122.613V59.6L122.853 59.82C122.479 60.5933 121.919 61.1933 121.173 61.62C120.439 62.0333 119.613 62.24 118.693 62.24ZM118.773 60.74C119.493 60.74 120.139 60.56 120.713 60.2C121.299 59.84 121.759 59.3533 122.093 58.74C122.439 58.1133 122.613 57.4133 122.613 56.64C122.613 55.8667 122.439 55.1733 122.093 54.56C121.759 53.9333 121.299 53.44 120.713 53.08C120.139 52.72 119.493 52.54 118.773 52.54C118.066 52.54 117.426 52.72 116.853 53.08C116.279 53.44 115.826 53.9267 115.493 54.54C115.173 55.1533 115.013 55.8533 115.013 56.64C115.013 57.4133 115.173 58.1133 115.493 58.74C115.826 59.3533 116.273 59.84 116.833 60.2C117.406 60.56 118.053 60.74 118.773 60.74ZM135.491 62.24C134.437 62.24 133.511 61.9933 132.711 61.5C131.911 61.0067 131.284 60.34 130.831 59.5C130.377 58.6467 130.151 57.6867 130.151 56.62C130.151 55.5533 130.377 54.6 130.831 53.76C131.284 52.92 131.911 52.26 132.711 51.78C133.511 51.2867 134.437 51.04 135.491 51.04C136.157 51.04 136.784 51.16 137.371 51.4C137.957 51.64 138.477 51.9667 138.931 52.38C139.384 52.78 139.724 53.2467 139.951 53.78L138.591 54.48C138.324 53.9067 137.917 53.44 137.371 53.08C136.824 52.72 136.197 52.54 135.491 52.54C134.784 52.54 134.144 52.72 133.571 53.08C133.011 53.4267 132.564 53.9133 132.231 54.54C131.911 55.1533 131.751 55.8533 131.751 56.64C131.751 57.4133 131.911 58.1133 132.231 58.74C132.564 59.3533 133.011 59.84 133.571 60.2C134.144 60.56 134.784 60.74 135.491 60.74C136.197 60.74 136.817 60.56 137.351 60.2C137.897 59.84 138.311 59.36 138.591 58.76L139.951 59.5C139.724 60.02 139.384 60.4867 138.931 60.9C138.477 61.3133 137.957 61.64 137.371 61.88C136.784 62.12 136.157 62.24 135.491 62.24ZM142.583 62V51.28H144.083V53.04L143.883 52.78C144.136 52.2733 144.516 51.8733 145.023 51.58C145.543 51.2867 146.17 51.14 146.903 51.14H147.583V52.64H146.643C145.87 52.64 145.25 52.88 144.783 53.36C144.316 53.84 144.083 54.52 144.083 55.4V62H142.583ZM154.221 62.24C153.221 62.24 152.314 62 151.501 61.52C150.701 61.0267 150.067 60.3533 149.601 59.5C149.134 58.6467 148.901 57.68 148.901 56.6C148.901 55.52 149.127 54.5667 149.581 53.74C150.034 52.9 150.647 52.24 151.421 51.76C152.207 51.28 153.087 51.04 154.061 51.04C154.834 51.04 155.521 51.1867 156.121 51.48C156.734 51.76 157.254 52.1467 157.681 52.64C158.107 53.12 158.434 53.6667 158.661 54.28C158.887 54.88 159.001 55.5 159.001 56.14C159.001 56.2733 158.994 56.4267 158.981 56.6C158.967 56.76 158.947 56.9267 158.921 57.1H149.861V55.7H158.061L157.341 56.3C157.461 55.5667 157.374 54.9133 157.081 54.34C156.801 53.7533 156.394 53.2933 155.861 52.96C155.327 52.6133 154.727 52.44 154.061 52.44C153.394 52.44 152.774 52.6133 152.201 52.96C151.641 53.3067 151.201 53.7933 150.881 54.42C150.561 55.0333 150.434 55.7667 150.501 56.62C150.434 57.4733 150.567 58.22 150.901 58.86C151.247 59.4867 151.714 59.9733 152.301 60.32C152.901 60.6667 153.541 60.84 154.221 60.84C155.007 60.84 155.667 60.6533 156.201 60.28C156.734 59.9067 157.167 59.44 157.501 58.88L158.781 59.56C158.567 60.04 158.241 60.4867 157.801 60.9C157.361 61.3 156.834 61.6267 156.221 61.88C155.621 62.12 154.954 62.24 154.221 62.24ZM164.55 62.24C163.87 62.24 163.263 62.1133 162.73 61.86C162.197 61.5933 161.777 61.2333 161.47 60.78C161.163 60.3267 161.01 59.8067 161.01 59.22C161.01 58.66 161.13 58.1533 161.37 57.7C161.61 57.2333 161.983 56.84 162.49 56.52C162.997 56.2 163.643 55.9733 164.43 55.84L168.63 55.14V56.5L164.79 57.14C164.017 57.2733 163.457 57.52 163.11 57.88C162.777 58.24 162.61 58.6667 162.61 59.16C162.61 59.64 162.797 60.0467 163.17 60.38C163.557 60.7133 164.05 60.88 164.65 60.88C165.383 60.88 166.023 60.7267 166.57 60.42C167.117 60.1 167.543 59.6733 167.85 59.14C168.157 58.6067 168.31 58.0133 168.31 57.36V54.64C168.31 54 168.077 53.48 167.61 53.08C167.143 52.68 166.537 52.48 165.79 52.48C165.137 52.48 164.563 52.6467 164.07 52.98C163.577 53.3 163.21 53.72 162.97 54.24L161.61 53.5C161.81 53.0467 162.123 52.6333 162.55 52.26C162.99 51.8867 163.49 51.5933 164.05 51.38C164.61 51.1533 165.19 51.04 165.79 51.04C166.577 51.04 167.27 51.1933 167.87 51.5C168.483 51.8067 168.957 52.2333 169.29 52.78C169.637 53.3133 169.81 53.9333 169.81 54.64V62H168.31V59.86L168.53 60.08C168.343 60.48 168.05 60.8467 167.65 61.18C167.263 61.5 166.803 61.76 166.27 61.96C165.75 62.1467 165.177 62.24 164.55 62.24ZM176.8 62.12C175.84 62.12 175.1 61.84 174.58 61.28C174.06 60.72 173.8 59.92 173.8 58.88V52.78H171.82V51.28H172.32C172.773 51.28 173.133 51.1333 173.4 50.84C173.667 50.5333 173.8 50.1533 173.8 49.7V48.8H175.3V51.28H177.66V52.78H175.3V58.88C175.3 59.24 175.353 59.56 175.46 59.84C175.567 60.1067 175.747 60.32 176 60.48C176.267 60.64 176.62 60.72 177.06 60.72C177.167 60.72 177.293 60.7133 177.44 60.7C177.587 60.6867 177.713 60.6733 177.82 60.66V62C177.66 62.04 177.48 62.0667 177.28 62.08C177.08 62.1067 176.92 62.12 176.8 62.12ZM180.454 62V51.28H181.954V62H180.454ZM180.454 49.3V47.1H181.954V49.3H180.454ZM187.884 62L183.704 51.28H185.384L188.904 60.68H188.364L191.904 51.28H193.604L189.384 62H187.884ZM200.041 62.24C199.041 62.24 198.134 62 197.321 61.52C196.521 61.0267 195.888 60.3533 195.421 59.5C194.954 58.6467 194.721 57.68 194.721 56.6C194.721 55.52 194.948 54.5667 195.401 53.74C195.854 52.9 196.468 52.24 197.241 51.76C198.028 51.28 198.908 51.04 199.881 51.04C200.654 51.04 201.341 51.1867 201.941 51.48C202.554 51.76 203.074 52.1467 203.501 52.64C203.928 53.12 204.254 53.6667 204.481 54.28C204.708 54.88 204.821 55.5 204.821 56.14C204.821 56.2733 204.814 56.4267 204.801 56.6C204.788 56.76 204.768 56.9267 204.741 57.1H195.681V55.7H203.881L203.161 56.3C203.281 55.5667 203.194 54.9133 202.901 54.34C202.621 53.7533 202.214 53.2933 201.681 52.96C201.148 52.6133 200.548 52.44 199.881 52.44C199.214 52.44 198.594 52.6133 198.021 52.96C197.461 53.3067 197.021 53.7933 196.701 54.42C196.381 55.0333 196.254 55.7667 196.321 56.62C196.254 57.4733 196.388 58.22 196.721 58.86C197.068 59.4867 197.534 59.9733 198.121 60.32C198.721 60.6667 199.361 60.84 200.041 60.84C200.828 60.84 201.488 60.6533 202.021 60.28C202.554 59.9067 202.988 59.44 203.321 58.88L204.601 59.56C204.388 60.04 204.061 60.4867 203.621 60.9C203.181 61.3 202.654 61.6267 202.041 61.88C201.441 62.12 200.774 62.24 200.041 62.24ZM329.9 62V59.8H331.5V62H329.9Z" fill="#1E2126"/>
<path d="M214.584 62.24C213.558 62.24 212.658 61.98 211.884 61.46C211.111 60.94 210.551 60.2333 210.204 59.34L211.464 58.74C211.771 59.3933 212.198 59.9133 212.744 60.3C213.304 60.6867 213.918 60.88 214.584 60.88C215.224 60.88 215.764 60.7267 216.204 60.42C216.644 60.1 216.864 59.6867 216.864 59.18C216.864 58.8067 216.758 58.5133 216.544 58.3C216.331 58.0733 216.084 57.9 215.804 57.78C215.524 57.66 215.278 57.5733 215.064 57.52L213.524 57.08C212.538 56.8 211.824 56.4067 211.384 55.9C210.944 55.3933 210.724 54.8067 210.724 54.14C210.724 53.5133 210.884 52.9667 211.204 52.5C211.524 52.0333 211.958 51.6733 212.504 51.42C213.051 51.1667 213.658 51.04 214.324 51.04C215.231 51.04 216.051 51.28 216.784 51.76C217.531 52.2267 218.058 52.88 218.364 53.72L217.084 54.32C216.818 53.72 216.431 53.2533 215.924 52.92C215.431 52.5733 214.878 52.4 214.264 52.4C213.664 52.4 213.184 52.5533 212.824 52.86C212.464 53.1667 212.284 53.5533 212.284 54.02C212.284 54.38 212.378 54.6667 212.564 54.88C212.751 55.0933 212.964 55.2533 213.204 55.36C213.458 55.4667 213.678 55.5467 213.864 55.6L215.644 56.12C216.511 56.3733 217.184 56.7667 217.664 57.3C218.158 57.8333 218.404 58.46 218.404 59.18C218.404 59.7667 218.238 60.2933 217.904 60.76C217.584 61.2267 217.138 61.5933 216.564 61.86C215.991 62.1133 215.331 62.24 214.584 62.24ZM224.84 62.24C224.093 62.24 223.413 62.0667 222.8 61.72C222.187 61.36 221.7 60.8667 221.34 60.24C220.993 59.6 220.82 58.8667 220.82 58.04V51.28H222.32V57.86C222.32 58.4333 222.433 58.94 222.66 59.38C222.9 59.8067 223.227 60.14 223.64 60.38C224.067 60.62 224.553 60.74 225.1 60.74C225.647 60.74 226.133 60.62 226.56 60.38C226.987 60.1267 227.32 59.7733 227.56 59.32C227.8 58.8533 227.92 58.3 227.92 57.66V51.28H229.42V62H227.92V59.92L228.26 60C228.007 60.6933 227.573 61.24 226.96 61.64C226.347 62.04 225.64 62.24 224.84 62.24ZM237.925 62.24C237.005 62.24 236.172 62.0333 235.425 61.62C234.692 61.1933 234.138 60.5933 233.765 59.82L234.005 59.6V62H232.505V46.86H234.005V53.68L233.765 53.26C234.192 52.58 234.758 52.04 235.465 51.64C236.185 51.24 237.005 51.04 237.925 51.04C238.938 51.04 239.838 51.2867 240.625 51.78C241.425 52.26 242.052 52.92 242.505 53.76C242.972 54.6 243.205 55.56 243.205 56.64C243.205 57.7067 242.972 58.6667 242.505 59.52C242.052 60.36 241.425 61.0267 240.625 61.52C239.838 62 238.938 62.24 237.925 62.24ZM237.845 60.74C238.565 60.74 239.205 60.56 239.765 60.2C240.338 59.84 240.785 59.3533 241.105 58.74C241.438 58.1133 241.605 57.4133 241.605 56.64C241.605 55.8533 241.438 55.1533 241.105 54.54C240.785 53.9267 240.338 53.44 239.765 53.08C239.205 52.72 238.565 52.54 237.845 52.54C237.125 52.54 236.472 52.72 235.885 53.08C235.312 53.44 234.852 53.9333 234.505 54.56C234.172 55.1733 234.005 55.8667 234.005 56.64C234.005 57.4133 234.172 58.1133 234.505 58.74C234.852 59.3533 235.312 59.84 235.885 60.2C236.472 60.56 237.125 60.74 237.845 60.74ZM249.565 62.24C248.538 62.24 247.638 61.98 246.865 61.46C246.091 60.94 245.531 60.2333 245.185 59.34L246.445 58.74C246.751 59.3933 247.178 59.9133 247.725 60.3C248.285 60.6867 248.898 60.88 249.565 60.88C250.205 60.88 250.745 60.7267 251.185 60.42C251.625 60.1 251.845 59.6867 251.845 59.18C251.845 58.8067 251.738 58.5133 251.525 58.3C251.311 58.0733 251.065 57.9 250.785 57.78C250.505 57.66 250.258 57.5733 250.045 57.52L248.505 57.08C247.518 56.8 246.805 56.4067 246.365 55.9C245.925 55.3933 245.705 54.8067 245.705 54.14C245.705 53.5133 245.865 52.9667 246.185 52.5C246.505 52.0333 246.938 51.6733 247.485 51.42C248.031 51.1667 248.638 51.04 249.305 51.04C250.211 51.04 251.031 51.28 251.765 51.76C252.511 52.2267 253.038 52.88 253.345 53.72L252.065 54.32C251.798 53.72 251.411 53.2533 250.905 52.92C250.411 52.5733 249.858 52.4 249.245 52.4C248.645 52.4 248.165 52.5533 247.805 52.86C247.445 53.1667 247.265 53.5533 247.265 54.02C247.265 54.38 247.358 54.6667 247.545 54.88C247.731 55.0933 247.945 55.2533 248.185 55.36C248.438 55.4667 248.658 55.5467 248.845 55.6L250.625 56.12C251.491 56.3733 252.165 56.7667 252.645 57.3C253.138 57.8333 253.385 58.46 253.385 59.18C253.385 59.7667 253.218 60.2933 252.885 60.76C252.565 61.2267 252.118 61.5933 251.545 61.86C250.971 62.1133 250.311 62.24 249.565 62.24ZM260.92 62.24C259.867 62.24 258.94 61.9933 258.14 61.5C257.34 61.0067 256.714 60.34 256.26 59.5C255.807 58.6467 255.58 57.6867 255.58 56.62C255.58 55.5533 255.807 54.6 256.26 53.76C256.714 52.92 257.34 52.26 258.14 51.78C258.94 51.2867 259.867 51.04 260.92 51.04C261.587 51.04 262.214 51.16 262.8 51.4C263.387 51.64 263.907 51.9667 264.36 52.38C264.814 52.78 265.154 53.2467 265.38 53.78L264.02 54.48C263.754 53.9067 263.347 53.44 262.8 53.08C262.254 52.72 261.627 52.54 260.92 52.54C260.214 52.54 259.574 52.72 259 53.08C258.44 53.4267 257.994 53.9133 257.66 54.54C257.34 55.1533 257.18 55.8533 257.18 56.64C257.18 57.4133 257.34 58.1133 257.66 58.74C257.994 59.3533 258.44 59.84 259 60.2C259.574 60.56 260.214 60.74 260.92 60.74C261.627 60.74 262.247 60.56 262.78 60.2C263.327 59.84 263.74 59.36 264.02 58.76L265.38 59.5C265.154 60.02 264.814 60.4867 264.36 60.9C263.907 61.3133 263.387 61.64 262.8 61.88C262.214 62.12 261.587 62.24 260.92 62.24ZM268.013 62V51.28H269.513V53.04L269.313 52.78C269.566 52.2733 269.946 51.8733 270.453 51.58C270.973 51.2867 271.599 51.14 272.333 51.14H273.013V52.64H272.073C271.299 52.64 270.679 52.88 270.213 53.36C269.746 53.84 269.513 54.52 269.513 55.4V62H268.013ZM274.77 62V51.28H276.27V62H274.77ZM274.77 49.3V47.1H276.27V49.3H274.77ZM279.341 66V51.28H280.841V53.68L280.601 53.26C281.027 52.58 281.594 52.04 282.301 51.64C283.021 51.24 283.841 51.04 284.761 51.04C285.774 51.04 286.674 51.2867 287.461 51.78C288.261 52.26 288.887 52.92 289.341 53.76C289.807 54.6 290.041 55.56 290.041 56.64C290.041 57.7067 289.807 58.6667 289.341 59.52C288.887 60.36 288.261 61.0267 287.461 61.52C286.674 62 285.774 62.24 284.761 62.24C283.841 62.24 283.007 62.0333 282.261 61.62C281.527 61.1933 280.974 60.5933 280.601 59.82L280.841 59.6V66H279.341ZM284.681 60.74C285.401 60.74 286.041 60.56 286.601 60.2C287.174 59.84 287.621 59.3533 287.941 58.74C288.274 58.1133 288.441 57.4133 288.441 56.64C288.441 55.8533 288.274 55.1533 287.941 54.54C287.621 53.9267 287.174 53.44 286.601 53.08C286.041 52.72 285.401 52.54 284.681 52.54C283.961 52.54 283.307 52.72 282.721 53.08C282.147 53.44 281.687 53.9333 281.341 54.56C281.007 55.1733 280.841 55.8667 280.841 56.64C280.841 57.4133 281.007 58.1133 281.341 58.74C281.687 59.3533 282.147 59.84 282.721 60.2C283.307 60.56 283.961 60.74 284.681 60.74ZM296.585 62.12C295.625 62.12 294.885 61.84 294.365 61.28C293.845 60.72 293.585 59.92 293.585 58.88V52.78H291.605V51.28H292.105C292.559 51.28 292.919 51.1333 293.185 50.84C293.452 50.5333 293.585 50.1533 293.585 49.7V48.8H295.085V51.28H297.445V52.78H295.085V58.88C295.085 59.24 295.139 59.56 295.245 59.84C295.352 60.1067 295.532 60.32 295.785 60.48C296.052 60.64 296.405 60.72 296.845 60.72C296.952 60.72 297.079 60.7133 297.225 60.7C297.372 60.6867 297.499 60.6733 297.605 60.66V62C297.445 62.04 297.265 62.0667 297.065 62.08C296.865 62.1067 296.705 62.12 296.585 62.12ZM300.239 62V51.28H301.739V62H300.239ZM300.239 49.3V47.1H301.739V49.3H300.239ZM309.83 62.24C308.816 62.24 307.896 62 307.07 61.52C306.243 61.0267 305.583 60.36 305.09 59.52C304.61 58.6667 304.37 57.7 304.37 56.62C304.37 55.5533 304.61 54.6 305.09 53.76C305.57 52.92 306.216 52.26 307.03 51.78C307.856 51.2867 308.79 51.04 309.83 51.04C310.87 51.04 311.796 51.28 312.61 51.76C313.436 52.24 314.083 52.9 314.55 53.74C315.03 54.58 315.27 55.54 315.27 56.62C315.27 57.7133 315.023 58.6867 314.53 59.54C314.036 60.38 313.376 61.04 312.55 61.52C311.736 62 310.83 62.24 309.83 62.24ZM309.83 60.74C310.55 60.74 311.196 60.56 311.77 60.2C312.356 59.84 312.816 59.3467 313.15 58.72C313.496 58.0933 313.67 57.3933 313.67 56.62C313.67 55.8467 313.496 55.1533 313.15 54.54C312.816 53.9267 312.356 53.44 311.77 53.08C311.196 52.72 310.55 52.54 309.83 52.54C309.11 52.54 308.456 52.72 307.87 53.08C307.296 53.44 306.836 53.9267 306.49 54.54C306.143 55.1533 305.97 55.8467 305.97 56.62C305.97 57.3933 306.143 58.0933 306.49 58.72C306.836 59.3467 307.296 59.84 307.87 60.2C308.456 60.56 309.11 60.74 309.83 60.74ZM317.915 62V51.28H319.415V53.36L319.075 53.28C319.342 52.5867 319.775 52.04 320.375 51.64C320.988 51.24 321.695 51.04 322.495 51.04C323.255 51.04 323.935 51.2133 324.535 51.56C325.148 51.9067 325.628 52.3867 325.975 53C326.335 53.6 326.515 54.28 326.515 55.04V62H325.015V55.62C325.015 54.9667 324.895 54.4133 324.655 53.96C324.428 53.5067 324.102 53.16 323.675 52.92C323.262 52.6667 322.782 52.54 322.235 52.54C321.688 52.54 321.202 52.6667 320.775 52.92C320.348 53.16 320.015 53.5133 319.775 53.98C319.535 54.4333 319.415 54.98 319.415 55.62V62H317.915Z" fill="#0CB5E9"/>
<path d="M209.324 65.5H327.835V66.3H209.324V65.5Z" fill="#0CB5E9"/>
<rect x="183" width="185" height="34" rx="6" fill="#1E2126"/>
<path d="M200.491 22V12.315H206.471V13.29H201.531V16.657H206.081V17.632H201.531V22H200.491ZM207.508 22V15.032H208.483V16.176L208.353 16.007C208.518 15.6777 208.765 15.4177 209.094 15.227C209.432 15.0363 209.84 14.941 210.316 14.941H210.758V15.916H210.147C209.645 15.916 209.242 16.072 208.938 16.384C208.635 16.696 208.483 17.138 208.483 17.71V22H207.508ZM215.164 22.156C214.505 22.156 213.907 22 213.37 21.688C212.833 21.3673 212.404 20.934 212.083 20.388C211.771 19.8333 211.615 19.205 211.615 18.503C211.615 17.8097 211.771 17.19 212.083 16.644C212.395 16.098 212.815 15.669 213.344 15.357C213.881 15.0363 214.488 14.876 215.164 14.876C215.84 14.876 216.442 15.032 216.971 15.344C217.508 15.656 217.929 16.085 218.232 16.631C218.544 17.177 218.7 17.801 218.7 18.503C218.7 19.2137 218.54 19.8463 218.219 20.401C217.898 20.947 217.469 21.376 216.932 21.688C216.403 22 215.814 22.156 215.164 22.156ZM215.164 21.181C215.632 21.181 216.052 21.064 216.425 20.83C216.806 20.596 217.105 20.2753 217.322 19.868C217.547 19.4607 217.66 19.0057 217.66 18.503C217.66 18.0003 217.547 17.5497 217.322 17.151C217.105 16.7523 216.806 16.436 216.425 16.202C216.052 15.968 215.632 15.851 215.164 15.851C214.696 15.851 214.271 15.968 213.89 16.202C213.517 16.436 213.218 16.7523 212.993 17.151C212.768 17.5497 212.655 18.0003 212.655 18.503C212.655 19.0057 212.768 19.4607 212.993 19.868C213.218 20.2753 213.517 20.596 213.89 20.83C214.271 21.064 214.696 21.181 215.164 21.181ZM220.419 22V15.032H221.394V16.358L221.238 16.163C221.429 15.7557 221.711 15.4393 222.083 15.214C222.465 14.9887 222.881 14.876 223.331 14.876C223.869 14.876 224.354 15.0277 224.787 15.331C225.221 15.6343 225.528 16.0287 225.71 16.514L225.437 16.527C225.611 15.9897 225.91 15.5823 226.334 15.305C226.768 15.019 227.244 14.876 227.764 14.876C228.232 14.876 228.661 14.9887 229.051 15.214C229.45 15.4393 229.766 15.7513 230 16.15C230.243 16.54 230.364 16.982 230.364 17.476V22H229.389V17.853C229.389 17.4283 229.311 17.0687 229.155 16.774C229.008 16.4793 228.804 16.254 228.544 16.098C228.284 15.9333 227.985 15.851 227.647 15.851C227.318 15.851 227.019 15.9333 226.75 16.098C226.482 16.254 226.269 16.4837 226.113 16.787C225.957 17.0817 225.879 17.437 225.879 17.853V22H224.904V17.853C224.904 17.4283 224.826 17.0687 224.67 16.774C224.523 16.4793 224.319 16.254 224.059 16.098C223.799 15.9333 223.5 15.851 223.162 15.851C222.824 15.851 222.521 15.9333 222.252 16.098C221.992 16.254 221.784 16.4837 221.628 16.787C221.472 17.0817 221.394 17.437 221.394 17.853V22H220.419ZM233.135 24.86C233.074 24.86 232.992 24.8557 232.888 24.847C232.775 24.8383 232.684 24.8253 232.615 24.808V23.911C232.797 23.937 232.979 23.95 233.161 23.95C233.516 23.95 233.815 23.8417 234.058 23.625C234.309 23.4083 234.435 23.0833 234.435 22.65V15.032H235.41V22.65C235.41 23.1267 235.306 23.5297 235.098 23.859C234.89 24.1883 234.613 24.4353 234.266 24.6C233.928 24.7733 233.551 24.86 233.135 24.86ZM234.435 13.745V12.315H235.41V13.745H234.435ZM239.876 22.156C239.39 22.156 238.948 22.0433 238.55 21.818C238.151 21.584 237.835 21.2633 237.601 20.856C237.375 20.44 237.263 19.9633 237.263 19.426V15.032H238.238V19.309C238.238 19.6817 238.311 20.011 238.459 20.297C238.615 20.5743 238.827 20.791 239.096 20.947C239.373 21.103 239.689 21.181 240.045 21.181C240.4 21.181 240.716 21.103 240.994 20.947C241.271 20.7823 241.488 20.5527 241.644 20.258C241.8 19.9547 241.878 19.595 241.878 19.179V15.032H242.853V22H241.878V20.648L242.099 20.7C241.934 21.1507 241.652 21.506 241.254 21.766C240.855 22.026 240.396 22.156 239.876 22.156ZM247.276 22.156C246.609 22.156 246.024 21.987 245.521 21.649C245.018 21.311 244.654 20.8517 244.429 20.271L245.248 19.881C245.447 20.3057 245.725 20.6437 246.08 20.895C246.444 21.1463 246.843 21.272 247.276 21.272C247.692 21.272 248.043 21.1723 248.329 20.973C248.615 20.765 248.758 20.4963 248.758 20.167C248.758 19.9243 248.689 19.7337 248.55 19.595C248.411 19.4477 248.251 19.335 248.069 19.257C247.887 19.179 247.727 19.1227 247.588 19.088L246.587 18.802C245.946 18.62 245.482 18.3643 245.196 18.035C244.91 17.7057 244.767 17.3243 244.767 16.891C244.767 16.4837 244.871 16.1283 245.079 15.825C245.287 15.5217 245.569 15.2877 245.924 15.123C246.279 14.9583 246.674 14.876 247.107 14.876C247.696 14.876 248.229 15.032 248.706 15.344C249.191 15.6473 249.534 16.072 249.733 16.618L248.901 17.008C248.728 16.618 248.476 16.3147 248.147 16.098C247.826 15.8727 247.467 15.76 247.068 15.76C246.678 15.76 246.366 15.8597 246.132 16.059C245.898 16.2583 245.781 16.5097 245.781 16.813C245.781 17.047 245.842 17.2333 245.963 17.372C246.084 17.5107 246.223 17.6147 246.379 17.684C246.544 17.7533 246.687 17.8053 246.808 17.84L247.965 18.178C248.528 18.3427 248.966 18.5983 249.278 18.945C249.599 19.2917 249.759 19.699 249.759 20.167C249.759 20.5483 249.651 20.8907 249.434 21.194C249.226 21.4973 248.936 21.7357 248.563 21.909C248.19 22.0737 247.761 22.156 247.276 22.156ZM254.137 22.078C253.513 22.078 253.032 21.896 252.694 21.532C252.356 21.168 252.187 20.648 252.187 19.972V16.007H250.9V15.032H251.225C251.52 15.032 251.754 14.9367 251.927 14.746C252.101 14.5467 252.187 14.2997 252.187 14.005V13.42H253.162V15.032H254.696V16.007H253.162V19.972C253.162 20.206 253.197 20.414 253.266 20.596C253.336 20.7693 253.453 20.908 253.617 21.012C253.791 21.116 254.02 21.168 254.306 21.168C254.376 21.168 254.458 21.1637 254.553 21.155C254.649 21.1463 254.731 21.1377 254.8 21.129V22C254.696 22.026 254.579 22.0433 254.449 22.052C254.319 22.0693 254.215 22.078 254.137 22.078ZM263.583 22.156C262.985 22.156 262.426 22.0347 261.906 21.792C261.395 21.5407 260.944 21.194 260.554 20.752C260.164 20.3013 259.861 19.7727 259.644 19.166C259.428 18.5507 259.319 17.879 259.319 17.151C259.319 16.4403 259.423 15.7817 259.631 15.175C259.848 14.5683 260.147 14.0397 260.528 13.589C260.918 13.1383 261.373 12.7873 261.893 12.536C262.422 12.2847 262.994 12.159 263.609 12.159C264.424 12.159 265.143 12.3757 265.767 12.809C266.391 13.2337 266.838 13.823 267.106 14.577L266.183 14.967C265.967 14.3777 265.629 13.914 265.169 13.576C264.71 13.238 264.181 13.069 263.583 13.069C262.985 13.069 262.439 13.2423 261.945 13.589C261.46 13.9357 261.07 14.4167 260.775 15.032C260.489 15.6387 260.346 16.345 260.346 17.151C260.346 17.9483 260.481 18.659 260.749 19.283C261.027 19.8983 261.408 20.3793 261.893 20.726C262.379 21.0727 262.933 21.246 263.557 21.246C264.173 21.246 264.71 21.077 265.169 20.739C265.629 20.401 265.967 19.9417 266.183 19.361L267.106 19.751C266.924 20.2537 266.66 20.6827 266.313 21.038C265.975 21.3933 265.572 21.6707 265.104 21.87C264.636 22.0607 264.129 22.156 263.583 22.156ZM258.149 18.581V17.736H263.986V18.581H258.149ZM258.149 16.566V15.721H263.986V16.566H258.149ZM270.179 22V13.225H268.359V12.315H271.219V22H270.179ZM278.175 22V19.712H273.248V18.867L278.175 12.315H279.085V18.867H280.268V19.712H279.085V22H278.175ZM274.041 19.244L273.924 18.867H278.175V13.212L278.5 13.303L274.041 19.244ZM282.177 22V20.57H283.217V22H282.177ZM288.484 22.156C287.981 22.156 287.513 22.0693 287.08 21.896C286.655 21.7227 286.283 21.4757 285.962 21.155C285.641 20.8343 285.399 20.453 285.234 20.011L286.027 19.621C286.226 20.1237 286.551 20.5223 287.002 20.817C287.461 21.103 287.955 21.246 288.484 21.246C288.909 21.246 289.286 21.1463 289.615 20.947C289.953 20.7477 290.217 20.479 290.408 20.141C290.599 19.7943 290.694 19.4087 290.694 18.984C290.694 18.542 290.594 18.152 290.395 17.814C290.204 17.476 289.944 17.2117 289.615 17.021C289.286 16.8217 288.913 16.722 288.497 16.722C288.072 16.722 287.678 16.8217 287.314 17.021C286.959 17.2117 286.699 17.4457 286.534 17.723L285.715 17.567L286.443 12.315H291.344V13.225H286.82L287.223 12.874L286.638 17.008L286.235 16.826C286.538 16.4533 286.894 16.189 287.301 16.033C287.708 15.8683 288.124 15.786 288.549 15.786C289.173 15.786 289.723 15.9333 290.2 16.228C290.677 16.514 291.049 16.8997 291.318 17.385C291.595 17.8617 291.734 18.3947 291.734 18.984C291.734 19.582 291.591 20.1237 291.305 20.609C291.028 21.0857 290.642 21.4627 290.148 21.74C289.663 22.0173 289.108 22.156 288.484 22.156ZM297.34 22.156C296.577 22.156 295.906 21.948 295.325 21.532C294.753 21.1073 294.307 20.5223 293.986 19.777C293.665 19.023 293.505 18.1477 293.505 17.151C293.505 16.1543 293.665 15.2833 293.986 14.538C294.307 13.784 294.753 13.199 295.325 12.783C295.897 12.367 296.564 12.159 297.327 12.159C298.09 12.159 298.757 12.367 299.329 12.783C299.901 13.199 300.347 13.784 300.668 14.538C300.989 15.2833 301.149 16.1543 301.149 17.151C301.149 18.1477 300.989 19.023 300.668 19.777C300.356 20.531 299.914 21.116 299.342 21.532C298.77 21.948 298.103 22.156 297.34 22.156ZM297.34 21.181C297.895 21.181 298.38 21.012 298.796 20.674C299.212 20.336 299.537 19.868 299.771 19.27C300.005 18.6633 300.122 17.957 300.122 17.151C300.122 16.345 300.005 15.643 299.771 15.045C299.537 14.4383 299.212 13.9703 298.796 13.641C298.38 13.303 297.89 13.134 297.327 13.134C296.772 13.134 296.287 13.303 295.871 13.641C295.455 13.9703 295.13 14.4383 294.896 15.045C294.662 15.643 294.545 16.345 294.545 17.151C294.545 17.9483 294.662 18.6503 294.896 19.257C295.13 19.8637 295.455 20.336 295.871 20.674C296.296 21.012 296.785 21.181 297.34 21.181ZM302.116 23.56L306.51 12.848H307.641L303.247 23.56H302.116ZM308.665 22V15.032H309.64V16.358L309.484 16.163C309.674 15.7557 309.956 15.4393 310.329 15.214C310.71 14.9887 311.126 14.876 311.577 14.876C312.114 14.876 312.599 15.0277 313.033 15.331C313.466 15.6343 313.774 16.0287 313.956 16.514L313.683 16.527C313.856 15.9897 314.155 15.5823 314.58 15.305C315.013 15.019 315.49 14.876 316.01 14.876C316.478 14.876 316.907 14.9887 317.297 15.214C317.695 15.4393 318.012 15.7513 318.246 16.15C318.488 16.54 318.61 16.982 318.61 17.476V22H317.635V17.853C317.635 17.4283 317.557 17.0687 317.401 16.774C317.253 16.4793 317.05 16.254 316.79 16.098C316.53 15.9333 316.231 15.851 315.893 15.851C315.563 15.851 315.264 15.9333 314.996 16.098C314.727 16.254 314.515 16.4837 314.359 16.787C314.203 17.0817 314.125 17.437 314.125 17.853V22H313.15V17.853C313.15 17.4283 313.072 17.0687 312.916 16.774C312.768 16.4793 312.565 16.254 312.305 16.098C312.045 15.9333 311.746 15.851 311.408 15.851C311.07 15.851 310.766 15.9333 310.498 16.098C310.238 16.254 310.03 16.4837 309.874 16.787C309.718 17.0817 309.64 17.437 309.64 17.853V22H308.665ZM323.734 22.156C323.076 22.156 322.478 22 321.94 21.688C321.403 21.3673 320.974 20.934 320.653 20.388C320.341 19.8333 320.185 19.205 320.185 18.503C320.185 17.8097 320.341 17.19 320.653 16.644C320.965 16.098 321.386 15.669 321.914 15.357C322.452 15.0363 323.058 14.876 323.734 14.876C324.41 14.876 325.013 15.032 325.541 15.344C326.079 15.656 326.499 16.085 326.802 16.631C327.114 17.177 327.27 17.801 327.27 18.503C327.27 19.2137 327.11 19.8463 326.789 20.401C326.469 20.947 326.04 21.376 325.502 21.688C324.974 22 324.384 22.156 323.734 22.156ZM323.734 21.181C324.202 21.181 324.623 21.064 324.995 20.83C325.377 20.596 325.676 20.2753 325.892 19.868C326.118 19.4607 326.23 19.0057 326.23 18.503C326.23 18.0003 326.118 17.5497 325.892 17.151C325.676 16.7523 325.377 16.436 324.995 16.202C324.623 15.968 324.202 15.851 323.734 15.851C323.266 15.851 322.842 15.968 322.46 16.202C322.088 16.436 321.789 16.7523 321.563 17.151C321.338 17.5497 321.225 18.0003 321.225 18.503C321.225 19.0057 321.338 19.4607 321.563 19.868C321.789 20.2753 322.088 20.596 322.46 20.83C322.842 21.064 323.266 21.181 323.734 21.181ZM328.99 22V15.032H329.965V16.384L329.744 16.332C329.917 15.8813 330.199 15.526 330.589 15.266C330.987 15.006 331.447 14.876 331.967 14.876C332.461 14.876 332.903 14.9887 333.293 15.214C333.691 15.4393 334.003 15.7513 334.229 16.15C334.463 16.54 334.58 16.982 334.58 17.476V22H333.605V17.853C333.605 17.4283 333.527 17.0687 333.371 16.774C333.223 16.4793 333.011 16.254 332.734 16.098C332.465 15.9333 332.153 15.851 331.798 15.851C331.442 15.851 331.126 15.9333 330.849 16.098C330.571 16.254 330.355 16.4837 330.199 16.787C330.043 17.0817 329.965 17.437 329.965 17.853V22H328.99ZM339.107 22.078C338.483 22.078 338.002 21.896 337.664 21.532C337.326 21.168 337.157 20.648 337.157 19.972V16.007H335.87V15.032H336.195C336.49 15.032 336.724 14.9367 336.897 14.746C337.07 14.5467 337.157 14.2997 337.157 14.005V13.42H338.132V15.032H339.666V16.007H338.132V19.972C338.132 20.206 338.167 20.414 338.236 20.596C338.305 20.7693 338.422 20.908 338.587 21.012C338.76 21.116 338.99 21.168 339.276 21.168C339.345 21.168 339.428 21.1637 339.523 21.155C339.618 21.1463 339.701 21.1377 339.77 21.129V22C339.666 22.026 339.549 22.0433 339.419 22.052C339.289 22.0693 339.185 22.078 339.107 22.078ZM341.482 22V12.159H342.457V16.384L342.236 16.332C342.409 15.8813 342.691 15.526 343.081 15.266C343.48 15.006 343.939 14.876 344.459 14.876C344.953 14.876 345.395 14.9887 345.785 15.214C346.184 15.4393 346.496 15.7513 346.721 16.15C346.955 16.54 347.072 16.982 347.072 17.476V22H346.097V17.853C346.097 17.4283 346.019 17.0687 345.863 16.774C345.707 16.4793 345.49 16.254 345.213 16.098C344.944 15.9333 344.637 15.851 344.29 15.851C343.943 15.851 343.631 15.9333 343.354 16.098C343.077 16.254 342.856 16.4837 342.691 16.787C342.535 17.0817 342.457 17.437 342.457 17.853V22H341.482ZM349.272 22V20.57H350.312V22H349.272Z" fill="white"/>
<path d="M268 40L259.34 31L276.66 31L268 40Z" fill="#1E2126"/>
</svg>
